<svg width="307" height="61" viewBox="0 0 307 61" fill="none" xmlns="http://www.w3.org/2000/svg">
<line y1="54" x2="307" y2="54" stroke="black" stroke-width="2"/>
<mask id="path-2-outside-1_6_728" maskUnits="userSpaceOnUse" x="1" y="-3" width="305" height="67" fill="black">
<rect fill="white" x="1" y="-3" width="305" height="67"/>
<path d="M4.125 0.9375H13.6875V47H4.125V0.9375ZM38 19.5312C34.9792 19.5312 32.9062 20.8125 31.7812 23.375C31.1979 24.7292 30.9062 26.4583 30.9062 28.5625V47H22.0312V13H30.625V17.9688C31.7708 16.2188 32.8542 14.9583 33.875 14.1875C35.7083 12.8125 38.0312 12.125 40.8438 12.125C44.3646 12.125 47.2396 13.0521 49.4688 14.9062C51.7188 16.7396 52.8438 19.7917 52.8438 24.0625V47H43.7188V26.2812C43.7188 24.4896 43.4792 23.1146 43 22.1562C42.125 20.4062 40.4583 19.5312 38 19.5312ZM84.5625 14.5C87.2292 16.2083 88.7604 19.1458 89.1562 23.3125H80.25C80.125 22.1667 79.8021 21.2604 79.2812 20.5938C78.3021 19.3854 76.6354 18.7812 74.2812 18.7812C72.3438 18.7812 70.9583 19.0833 70.125 19.6875C69.3125 20.2917 68.9062 21 68.9062 21.8125C68.9062 22.8333 69.3438 23.5729 70.2188 24.0312C71.0938 24.5104 74.1875 25.3333 79.5 26.5C83.0417 27.3333 85.6979 28.5938 87.4688 30.2812C89.2188 31.9896 90.0938 34.125 90.0938 36.6875C90.0938 40.0625 88.8333 42.8229 86.3125 44.9688C83.8125 47.0938 79.9375 48.1562 74.6875 48.1562C69.3333 48.1562 65.375 47.0312 62.8125 44.7812C60.2708 42.5104 59 39.625 59 36.125H68.0312C68.2188 37.7083 68.625 38.8333 69.25 39.5C70.3542 40.6875 72.3958 41.2812 75.375 41.2812C77.125 41.2812 78.5104 41.0208 79.5312 40.5C80.5729 39.9792 81.0938 39.1979 81.0938 38.1562C81.0938 37.1562 80.6771 36.3958 79.8438 35.875C79.0104 35.3542 75.9167 34.4583 70.5625 33.1875C66.7083 32.2292 63.9896 31.0312 62.4062 29.5938C60.8229 28.1771 60.0312 26.1354 60.0312 23.4688C60.0312 20.3229 61.2604 17.625 63.7188 15.375C66.1979 13.1042 69.6771 11.9688 74.1562 11.9688C78.4062 11.9688 81.875 12.8125 84.5625 14.5ZM112.312 40.6562V47.3125L108.094 47.4688C103.885 47.6146 101.01 46.8854 99.4688 45.2812C98.4688 44.2604 97.9688 42.6875 97.9688 40.5625V19.5938H93.2188V13.25H97.9688V3.75H106.781V13.25H112.312V19.5938H106.781V37.5938C106.781 38.9896 106.958 39.8646 107.312 40.2188C107.667 40.5521 108.75 40.7188 110.562 40.7188C110.833 40.7188 111.115 40.7188 111.406 40.7188C111.719 40.6979 112.021 40.6771 112.312 40.6562ZM119.312 16.625C121.667 13.625 125.708 12.125 131.438 12.125C135.167 12.125 138.479 12.8646 141.375 14.3438C144.271 15.8229 145.719 18.6146 145.719 22.7188V38.3438C145.719 39.4271 145.74 40.7396 145.781 42.2812C145.844 43.4479 146.021 44.2396 146.312 44.6562C146.604 45.0729 147.042 45.4167 147.625 45.6875V47H137.938C137.667 46.3125 137.479 45.6667 137.375 45.0625C137.271 44.4583 137.188 43.7708 137.125 43C135.896 44.3333 134.479 45.4688 132.875 46.4062C130.958 47.5104 128.792 48.0625 126.375 48.0625C123.292 48.0625 120.74 47.1875 118.719 45.4375C116.719 43.6667 115.719 41.1667 115.719 37.9375C115.719 33.75 117.333 30.7188 120.562 28.8438C122.333 27.8229 124.938 27.0938 128.375 26.6562L131.406 26.2812C133.052 26.0729 134.229 25.8125 134.938 25.5C136.208 24.9583 136.844 24.1146 136.844 22.9688C136.844 21.5729 136.354 20.6146 135.375 20.0938C134.417 19.5521 133 19.2812 131.125 19.2812C129.021 19.2812 127.531 19.8021 126.656 20.8438C126.031 21.6146 125.615 22.6562 125.406 23.9688H116.812C117 20.9896 117.833 18.5417 119.312 16.625ZM125.938 40.5625C126.771 41.25 127.792 41.5938 129 41.5938C130.917 41.5938 132.677 41.0312 134.281 39.9062C135.906 38.7812 136.75 36.7292 136.812 33.75V30.4375C136.25 30.7917 135.677 31.0833 135.094 31.3125C134.531 31.5208 133.75 31.7188 132.75 31.9062L130.75 32.2812C128.875 32.6146 127.531 33.0208 126.719 33.5C125.344 34.3125 124.656 35.5729 124.656 37.2812C124.656 38.8021 125.083 39.8958 125.938 40.5625ZM163.281 52.9688C164.24 53.7812 165.854 54.1875 168.125 54.1875C171.333 54.1875 173.479 53.1146 174.562 50.9688C175.271 49.5938 175.625 47.2812 175.625 44.0312V41.8438C174.771 43.3021 173.854 44.3958 172.875 45.125C171.104 46.4792 168.802 47.1562 165.969 47.1562C161.594 47.1562 158.094 45.625 155.469 42.5625C152.865 39.4792 151.562 35.3125 151.562 30.0625C151.562 25 152.823 20.75 155.344 17.3125C157.865 13.8542 161.438 12.125 166.062 12.125C167.771 12.125 169.26 12.3854 170.531 12.9062C172.698 13.8021 174.448 15.4479 175.781 17.8438V12.9375H184.438V45.25C184.438 49.6458 183.698 52.9583 182.219 55.1875C179.677 59.0208 174.802 60.9375 167.594 60.9375C163.24 60.9375 159.688 60.0833 156.938 58.375C154.188 56.6667 152.667 54.1146 152.375 50.7188H162.062C162.312 51.7604 162.719 52.5104 163.281 52.9688ZM161.781 35.375C162.99 38.25 165.156 39.6875 168.281 39.6875C170.365 39.6875 172.125 38.9062 173.562 37.3438C175 35.7604 175.719 33.25 175.719 29.8125C175.719 26.5833 175.031 24.125 173.656 22.4375C172.302 20.75 170.479 19.9062 168.188 19.9062C165.062 19.9062 162.906 21.375 161.719 24.3125C161.094 25.875 160.781 27.8021 160.781 30.0938C160.781 32.0729 161.115 33.8333 161.781 35.375ZM209.906 21.1562C206.323 21.1562 203.917 22.3229 202.688 24.6562C202 25.9688 201.656 27.9896 201.656 30.7188V47H192.688V12.9375H201.188V18.875C202.562 16.6042 203.76 15.0521 204.781 14.2188C206.448 12.8229 208.615 12.125 211.281 12.125C211.448 12.125 211.583 12.1354 211.688 12.1562C211.812 12.1562 212.073 12.1667 212.469 12.1875V21.3125C211.906 21.25 211.406 21.2083 210.969 21.1875C210.531 21.1667 210.177 21.1562 209.906 21.1562ZM219 16.625C221.354 13.625 225.396 12.125 231.125 12.125C234.854 12.125 238.167 12.8646 241.062 14.3438C243.958 15.8229 245.406 18.6146 245.406 22.7188V38.3438C245.406 39.4271 245.427 40.7396 245.469 42.2812C245.531 43.4479 245.708 44.2396 246 44.6562C246.292 45.0729 246.729 45.4167 247.312 45.6875V47H237.625C237.354 46.3125 237.167 45.6667 237.062 45.0625C236.958 44.4583 236.875 43.7708 236.812 43C235.583 44.3333 234.167 45.4688 232.562 46.4062C230.646 47.5104 228.479 48.0625 226.062 48.0625C222.979 48.0625 220.427 47.1875 218.406 45.4375C216.406 43.6667 215.406 41.1667 215.406 37.9375C215.406 33.75 217.021 30.7188 220.25 28.8438C222.021 27.8229 224.625 27.0938 228.062 26.6562L231.094 26.2812C232.74 26.0729 233.917 25.8125 234.625 25.5C235.896 24.9583 236.531 24.1146 236.531 22.9688C236.531 21.5729 236.042 20.6146 235.062 20.0938C234.104 19.5521 232.688 19.2812 230.812 19.2812C228.708 19.2812 227.219 19.8021 226.344 20.8438C225.719 21.6146 225.302 22.6562 225.094 23.9688H216.5C216.688 20.9896 217.521 18.5417 219 16.625ZM225.625 40.5625C226.458 41.25 227.479 41.5938 228.688 41.5938C230.604 41.5938 232.365 41.0312 233.969 39.9062C235.594 38.7812 236.438 36.7292 236.5 33.75V30.4375C235.938 30.7917 235.365 31.0833 234.781 31.3125C234.219 31.5208 233.438 31.7188 232.438 31.9062L230.438 32.2812C228.562 32.6146 227.219 33.0208 226.406 33.5C225.031 34.3125 224.344 35.5729 224.344 37.2812C224.344 38.8021 224.771 39.8958 225.625 40.5625ZM272.469 22.3125C271.719 20.6667 270.25 19.8438 268.062 19.8438C265.521 19.8438 263.812 20.6667 262.938 22.3125C262.458 23.25 262.219 24.6458 262.219 26.5V47H253.188V13H261.844V17.9688C262.948 16.1979 263.99 14.9375 264.969 14.1875C266.698 12.8542 268.938 12.1875 271.688 12.1875C274.292 12.1875 276.396 12.7604 278 13.9062C279.292 14.9688 280.271 16.3333 280.938 18C282.104 16 283.552 14.5312 285.281 13.5938C287.115 12.6562 289.156 12.1875 291.406 12.1875C292.906 12.1875 294.385 12.4792 295.844 13.0625C297.302 13.6458 298.625 14.6667 299.812 16.125C300.771 17.3125 301.417 18.7708 301.75 20.5C301.958 21.6458 302.062 23.3229 302.062 25.5312L302 47H292.875V25.3125C292.875 24.0208 292.667 22.9583 292.25 22.125C291.458 20.5417 290 19.75 287.875 19.75C285.417 19.75 283.719 20.7708 282.781 22.8125C282.302 23.8958 282.062 25.1979 282.062 26.7188V47H273.094V26.7188C273.094 24.6979 272.885 23.2292 272.469 22.3125Z"/>
</mask>
<path d="M4.125 0.9375H13.6875V47H4.125V0.9375ZM38 19.5312C34.9792 19.5312 32.9062 20.8125 31.7812 23.375C31.1979 24.7292 30.9062 26.4583 30.9062 28.5625V47H22.0312V13H30.625V17.9688C31.7708 16.2188 32.8542 14.9583 33.875 14.1875C35.7083 12.8125 38.0312 12.125 40.8438 12.125C44.3646 12.125 47.2396 13.0521 49.4688 14.9062C51.7188 16.7396 52.8438 19.7917 52.8438 24.0625V47H43.7188V26.2812C43.7188 24.4896 43.4792 23.1146 43 22.1562C42.125 20.4062 40.4583 19.5312 38 19.5312ZM84.5625 14.5C87.2292 16.2083 88.7604 19.1458 89.1562 23.3125H80.25C80.125 22.1667 79.8021 21.2604 79.2812 20.5938C78.3021 19.3854 76.6354 18.7812 74.2812 18.7812C72.3438 18.7812 70.9583 19.0833 70.125 19.6875C69.3125 20.2917 68.9062 21 68.9062 21.8125C68.9062 22.8333 69.3438 23.5729 70.2188 24.0312C71.0938 24.5104 74.1875 25.3333 79.5 26.5C83.0417 27.3333 85.6979 28.5938 87.4688 30.2812C89.2188 31.9896 90.0938 34.125 90.0938 36.6875C90.0938 40.0625 88.8333 42.8229 86.3125 44.9688C83.8125 47.0938 79.9375 48.1562 74.6875 48.1562C69.3333 48.1562 65.375 47.0312 62.8125 44.7812C60.2708 42.5104 59 39.625 59 36.125H68.0312C68.2188 37.7083 68.625 38.8333 69.25 39.5C70.3542 40.6875 72.3958 41.2812 75.375 41.2812C77.125 41.2812 78.5104 41.0208 79.5312 40.5C80.5729 39.9792 81.0938 39.1979 81.0938 38.1562C81.0938 37.1562 80.6771 36.3958 79.8438 35.875C79.0104 35.3542 75.9167 34.4583 70.5625 33.1875C66.7083 32.2292 63.9896 31.0312 62.4062 29.5938C60.8229 28.1771 60.0312 26.1354 60.0312 23.4688C60.0312 20.3229 61.2604 17.625 63.7188 15.375C66.1979 13.1042 69.6771 11.9688 74.1562 11.9688C78.4062 11.9688 81.875 12.8125 84.5625 14.5ZM112.312 40.6562V47.3125L108.094 47.4688C103.885 47.6146 101.01 46.8854 99.4688 45.2812C98.4688 44.2604 97.9688 42.6875 97.9688 40.5625V19.5938H93.2188V13.25H97.9688V3.75H106.781V13.25H112.312V19.5938H106.781V37.5938C106.781 38.9896 106.958 39.8646 107.312 40.2188C107.667 40.5521 108.75 40.7188 110.562 40.7188C110.833 40.7188 111.115 40.7188 111.406 40.7188C111.719 40.6979 112.021 40.6771 112.312 40.6562ZM119.312 16.625C121.667 13.625 125.708 12.125 131.438 12.125C135.167 12.125 138.479 12.8646 141.375 14.3438C144.271 15.8229 145.719 18.6146 145.719 22.7188V38.3438C145.719 39.4271 145.74 40.7396 145.781 42.2812C145.844 43.4479 146.021 44.2396 146.312 44.6562C146.604 45.0729 147.042 45.4167 147.625 45.6875V47H137.938C137.667 46.3125 137.479 45.6667 137.375 45.0625C137.271 44.4583 137.188 43.7708 137.125 43C135.896 44.3333 134.479 45.4688 132.875 46.4062C130.958 47.5104 128.792 48.0625 126.375 48.0625C123.292 48.0625 120.74 47.1875 118.719 45.4375C116.719 43.6667 115.719 41.1667 115.719 37.9375C115.719 33.75 117.333 30.7188 120.562 28.8438C122.333 27.8229 124.938 27.0938 128.375 26.6562L131.406 26.2812C133.052 26.0729 134.229 25.8125 134.938 25.5C136.208 24.9583 136.844 24.1146 136.844 22.9688C136.844 21.5729 136.354 20.6146 135.375 20.0938C134.417 19.5521 133 19.2812 131.125 19.2812C129.021 19.2812 127.531 19.8021 126.656 20.8438C126.031 21.6146 125.615 22.6562 125.406 23.9688H116.812C117 20.9896 117.833 18.5417 119.312 16.625ZM125.938 40.5625C126.771 41.25 127.792 41.5938 129 41.5938C130.917 41.5938 132.677 41.0312 134.281 39.9062C135.906 38.7812 136.75 36.7292 136.812 33.75V30.4375C136.25 30.7917 135.677 31.0833 135.094 31.3125C134.531 31.5208 133.75 31.7188 132.75 31.9062L130.75 32.2812C128.875 32.6146 127.531 33.0208 126.719 33.5C125.344 34.3125 124.656 35.5729 124.656 37.2812C124.656 38.8021 125.083 39.8958 125.938 40.5625ZM163.281 52.9688C164.24 53.7812 165.854 54.1875 168.125 54.1875C171.333 54.1875 173.479 53.1146 174.562 50.9688C175.271 49.5938 175.625 47.2812 175.625 44.0312V41.8438C174.771 43.3021 173.854 44.3958 172.875 45.125C171.104 46.4792 168.802 47.1562 165.969 47.1562C161.594 47.1562 158.094 45.625 155.469 42.5625C152.865 39.4792 151.562 35.3125 151.562 30.0625C151.562 25 152.823 20.75 155.344 17.3125C157.865 13.8542 161.438 12.125 166.062 12.125C167.771 12.125 169.26 12.3854 170.531 12.9062C172.698 13.8021 174.448 15.4479 175.781 17.8438V12.9375H184.438V45.25C184.438 49.6458 183.698 52.9583 182.219 55.1875C179.677 59.0208 174.802 60.9375 167.594 60.9375C163.24 60.9375 159.688 60.0833 156.938 58.375C154.188 56.6667 152.667 54.1146 152.375 50.7188H162.062C162.312 51.7604 162.719 52.5104 163.281 52.9688ZM161.781 35.375C162.99 38.25 165.156 39.6875 168.281 39.6875C170.365 39.6875 172.125 38.9062 173.562 37.3438C175 35.7604 175.719 33.25 175.719 29.8125C175.719 26.5833 175.031 24.125 173.656 22.4375C172.302 20.75 170.479 19.9062 168.188 19.9062C165.062 19.9062 162.906 21.375 161.719 24.3125C161.094 25.875 160.781 27.8021 160.781 30.0938C160.781 32.0729 161.115 33.8333 161.781 35.375ZM209.906 21.1562C206.323 21.1562 203.917 22.3229 202.688 24.6562C202 25.9688 201.656 27.9896 201.656 30.7188V47H192.688V12.9375H201.188V18.875C202.562 16.6042 203.76 15.0521 204.781 14.2188C206.448 12.8229 208.615 12.125 211.281 12.125C211.448 12.125 211.583 12.1354 211.688 12.1562C211.812 12.1562 212.073 12.1667 212.469 12.1875V21.3125C211.906 21.25 211.406 21.2083 210.969 21.1875C210.531 21.1667 210.177 21.1562 209.906 21.1562ZM219 16.625C221.354 13.625 225.396 12.125 231.125 12.125C234.854 12.125 238.167 12.8646 241.062 14.3438C243.958 15.8229 245.406 18.6146 245.406 22.7188V38.3438C245.406 39.4271 245.427 40.7396 245.469 42.2812C245.531 43.4479 245.708 44.2396 246 44.6562C246.292 45.0729 246.729 45.4167 247.312 45.6875V47H237.625C237.354 46.3125 237.167 45.6667 237.062 45.0625C236.958 44.4583 236.875 43.7708 236.812 43C235.583 44.3333 234.167 45.4688 232.562 46.4062C230.646 47.5104 228.479 48.0625 226.062 48.0625C222.979 48.0625 220.427 47.1875 218.406 45.4375C216.406 43.6667 215.406 41.1667 215.406 37.9375C215.406 33.75 217.021 30.7188 220.25 28.8438C222.021 27.8229 224.625 27.0938 228.062 26.6562L231.094 26.2812C232.74 26.0729 233.917 25.8125 234.625 25.5C235.896 24.9583 236.531 24.1146 236.531 22.9688C236.531 21.5729 236.042 20.6146 235.062 20.0938C234.104 19.5521 232.688 19.2812 230.812 19.2812C228.708 19.2812 227.219 19.8021 226.344 20.8438C225.719 21.6146 225.302 22.6562 225.094 23.9688H216.5C216.688 20.9896 217.521 18.5417 219 16.625ZM225.625 40.5625C226.458 41.25 227.479 41.5938 228.688 41.5938C230.604 41.5938 232.365 41.0312 233.969 39.9062C235.594 38.7812 236.438 36.7292 236.5 33.75V30.4375C235.938 30.7917 235.365 31.0833 234.781 31.3125C234.219 31.5208 233.438 31.7188 232.438 31.9062L230.438 32.2812C228.562 32.6146 227.219 33.0208 226.406 33.5C225.031 34.3125 224.344 35.5729 224.344 37.2812C224.344 38.8021 224.771 39.8958 225.625 40.5625ZM272.469 22.3125C271.719 20.6667 270.25 19.8438 268.062 19.8438C265.521 19.8438 263.812 20.6667 262.938 22.3125C262.458 23.25 262.219 24.6458 262.219 26.5V47H253.188V13H261.844V17.9688C262.948 16.1979 263.99 14.9375 264.969 14.1875C266.698 12.8542 268.938 12.1875 271.688 12.1875C274.292 12.1875 276.396 12.7604 278 13.9062C279.292 14.9688 280.271 16.3333 280.938 18C282.104 16 283.552 14.5312 285.281 13.5938C287.115 12.6562 289.156 12.1875 291.406 12.1875C292.906 12.1875 294.385 12.4792 295.844 13.0625C297.302 13.6458 298.625 14.6667 299.812 16.125C300.771 17.3125 301.417 18.7708 301.75 20.5C301.958 21.6458 302.062 23.3229 302.062 25.5312L302 47H292.875V25.3125C292.875 24.0208 292.667 22.9583 292.25 22.125C291.458 20.5417 290 19.75 287.875 19.75C285.417 19.75 283.719 20.7708 282.781 22.8125C282.302 23.8958 282.062 25.1979 282.062 26.7188V47H273.094V26.7188C273.094 24.6979 272.885 23.2292 272.469 22.3125Z" fill="black"/>
<path d="M4.125 0.9375V-2.0625H1.125V0.9375H4.125ZM13.6875 0.9375H16.6875V-2.0625H13.6875V0.9375ZM13.6875 47V50H16.6875V47H13.6875ZM4.125 47H1.125V50H4.125V47ZM4.125 3.9375H13.6875V-2.0625H4.125V3.9375ZM10.6875 0.9375V47H16.6875V0.9375H10.6875ZM13.6875 44H4.125V50H13.6875V44ZM7.125 47V0.9375H1.125V47H7.125ZM31.7812 23.375L29.0343 22.169L29.0301 22.1786L29.026 22.1881L31.7812 23.375ZM30.9062 47V50H33.9062V47H30.9062ZM22.0312 47H19.0312V50H22.0312V47ZM22.0312 13V10H19.0312V13H22.0312ZM30.625 13H33.625V10H30.625V13ZM30.625 17.9688H27.625V28.0272L33.1349 19.6121L30.625 17.9688ZM33.875 14.1875L32.075 11.7875L32.0672 11.7934L33.875 14.1875ZM49.4688 14.9062L47.5503 17.2127L47.562 17.2224L47.5737 17.232L49.4688 14.9062ZM52.8438 47V50H55.8438V47H52.8438ZM43.7188 47H40.7188V50H43.7188V47ZM43 22.1562L40.3167 23.4979L43 22.1562ZM38 16.5312C36.0655 16.5312 34.2145 16.9439 32.6024 17.9403C30.9747 18.9464 29.8038 20.4163 29.0343 22.169L34.5282 24.581C34.8837 23.7712 35.3118 23.3193 35.757 23.0441C36.2178 22.7593 36.9137 22.5312 38 22.5312V16.5312ZM29.026 22.1881C28.2278 24.0412 27.9062 26.2113 27.9062 28.5625H33.9062C33.9062 26.7054 34.1681 25.4171 34.5365 24.5619L29.026 22.1881ZM27.9062 28.5625V47H33.9062V28.5625H27.9062ZM30.9062 44H22.0312V50H30.9062V44ZM25.0312 47V13H19.0312V47H25.0312ZM22.0312 16H30.625V10H22.0312V16ZM27.625 13V17.9688H33.625V13H27.625ZM33.1349 19.6121C34.196 17.9915 35.0568 17.0543 35.6828 16.5816L32.0672 11.7934C30.6516 12.8623 29.3457 14.446 28.1151 16.3254L33.1349 19.6121ZM35.675 16.5875C36.8802 15.6836 38.5297 15.125 40.8438 15.125V9.125C37.5328 9.125 34.5364 9.94142 32.075 11.7875L35.675 16.5875ZM40.8438 15.125C43.8196 15.125 45.9688 15.8972 47.5503 17.2127L51.3872 12.5998C48.5104 10.207 44.9095 9.125 40.8438 9.125V15.125ZM47.5737 17.232C48.8441 18.2671 49.8438 20.2558 49.8438 24.0625H55.8438C55.8438 19.3276 54.5934 15.2121 51.3638 12.5805L47.5737 17.232ZM49.8438 24.0625V47H55.8438V24.0625H49.8438ZM52.8438 44H43.7188V50H52.8438V44ZM46.7188 47V26.2812H40.7188V47H46.7188ZM46.7188 26.2812C46.7188 24.2981 46.466 22.38 45.6833 20.8146L40.3167 23.4979C40.4923 23.8491 40.7188 24.6811 40.7188 26.2812H46.7188ZM45.6833 20.8146C44.1611 17.7703 41.2465 16.5312 38 16.5312V22.5312C39.6702 22.5312 40.0889 23.0422 40.3167 23.4979L45.6833 20.8146ZM84.5625 14.5L86.1808 11.9739L86.1693 11.9666L86.1578 11.9593L84.5625 14.5ZM89.1562 23.3125V26.3125H92.4548L92.1428 23.0288L89.1562 23.3125ZM80.25 23.3125L77.2677 23.6378L77.5595 26.3125H80.25V23.3125ZM79.2812 20.5938L81.6453 18.7468L81.6289 18.7258L81.612 18.705L79.2812 20.5938ZM70.125 19.6875L68.3641 17.2587L68.3494 17.2693L68.3349 17.2801L70.125 19.6875ZM70.2188 24.0312L71.6597 21.4L71.6354 21.3866L71.6108 21.3738L70.2188 24.0312ZM79.5 26.5L80.1871 23.5797L80.1653 23.5746L80.1435 23.5698L79.5 26.5ZM87.4688 30.2812L89.5644 28.1345L89.5514 28.1219L89.5384 28.1094L87.4688 30.2812ZM86.3125 44.9688L88.2554 47.2546L88.2571 47.2532L86.3125 44.9688ZM62.8125 44.7812L60.8137 47.0184L60.8234 47.027L60.8331 47.0356L62.8125 44.7812ZM59 36.125V33.125H56V36.125H59ZM68.0312 36.125L71.0104 35.7722L70.6969 33.125H68.0312V36.125ZM69.25 39.5L71.447 37.4572L71.4386 37.4482L69.25 39.5ZM79.5312 40.5L78.1896 37.8167L78.1787 37.8222L78.1678 37.8277L79.5312 40.5ZM70.5625 33.1875L69.8386 36.0989L69.8541 36.1027L69.8697 36.1064L70.5625 33.1875ZM62.4062 29.5938L64.4228 27.3726L64.4147 27.3653L64.4066 27.358L62.4062 29.5938ZM63.7188 15.375L65.7442 17.588L65.7451 17.5872L63.7188 15.375ZM82.9442 17.0261C84.5997 18.0866 85.8308 20.0289 86.1697 23.5962L92.1428 23.0288C91.69 18.2628 89.8586 14.33 86.1808 11.9739L82.9442 17.0261ZM89.1562 20.3125H80.25V26.3125H89.1562V20.3125ZM83.2323 22.9872C83.068 21.4807 82.6129 19.9853 81.6453 18.7468L76.9172 22.4407C76.9913 22.5355 77.182 22.8527 77.2677 23.6378L83.2323 22.9872ZM81.612 18.705C79.8203 16.4939 77.0667 15.7812 74.2812 15.7812V21.7812C76.2042 21.7812 76.7839 22.2769 76.9505 22.4825L81.612 18.705ZM74.2812 15.7812C72.1902 15.7812 69.9945 16.0766 68.3641 17.2587L71.8859 22.1163C71.8661 22.1307 71.9969 22.033 72.4282 21.9389C72.8504 21.8469 73.4551 21.7812 74.2812 21.7812V15.7812ZM68.3349 17.2801C66.9695 18.2954 65.9062 19.8187 65.9062 21.8125H71.9062C71.9062 21.8623 71.8996 21.9264 71.8808 21.9969C71.862 22.0673 71.8363 22.1244 71.8133 22.1644C71.7685 22.2426 71.7625 22.2083 71.9151 22.0949L68.3349 17.2801ZM65.9062 21.8125C65.9062 22.7586 66.1125 23.7476 66.6523 24.6602C67.1954 25.5783 67.9706 26.2403 68.8267 26.6887L71.6108 21.3738C71.5951 21.3656 71.6208 21.3769 71.6669 21.4189C71.715 21.4628 71.7693 21.5257 71.8164 21.6054C71.9188 21.7784 71.9062 21.8872 71.9062 21.8125H65.9062ZM68.7778 26.6625C69.5924 27.1086 70.9558 27.5164 72.4241 27.907C74.0324 28.3348 76.1825 28.8429 78.8565 29.4302L80.1435 23.5698C77.505 22.9904 75.4519 22.5037 73.9665 22.1086C73.2225 21.9107 72.6477 21.7428 72.2262 21.6046C71.7587 21.4512 71.6224 21.3795 71.6597 21.4L68.7778 26.6625ZM78.8129 29.4203C82.0707 30.1868 84.1582 31.2705 85.3991 32.4531L89.5384 28.1094C87.2376 25.917 84.0126 24.4799 80.1871 23.5797L78.8129 29.4203ZM85.3731 32.428C86.5146 33.5423 87.0938 34.89 87.0938 36.6875H93.0938C93.0938 33.36 91.9229 30.4369 89.5644 28.1345L85.3731 32.428ZM87.0938 36.6875C87.0938 39.2029 86.2043 41.1212 84.3679 42.6843L88.2571 47.2532C91.4624 44.5247 93.0938 40.9221 93.0938 36.6875H87.0938ZM84.3696 42.6829C82.6548 44.1405 79.6274 45.1562 74.6875 45.1562V51.1562C80.2476 51.1562 84.9702 50.047 88.2554 47.2546L84.3696 42.6829ZM74.6875 45.1562C69.6664 45.1562 66.5692 44.0875 64.7919 42.5269L60.8331 47.0356C64.1808 49.9751 69.0002 51.1562 74.6875 51.1562V45.1562ZM64.8113 42.5441C62.9259 40.8596 62 38.7969 62 36.125H56C56 40.4531 57.6157 44.1612 60.8137 47.0184L64.8113 42.5441ZM59 39.125H68.0312V33.125H59V39.125ZM65.0521 36.4778C65.265 38.2755 65.777 40.1818 67.0614 41.5518L71.4386 37.4482C71.477 37.4892 71.4036 37.429 71.2982 37.1373C71.1937 36.8478 71.0856 36.4067 71.0104 35.7722L65.0521 36.4778ZM67.053 41.5428C69.0479 43.6883 72.2004 44.2812 75.375 44.2812V38.2812C72.5912 38.2812 71.6604 37.6867 71.447 37.4572L67.053 41.5428ZM75.375 44.2812C77.3715 44.2812 79.2873 43.9924 80.8947 43.1723L78.1678 37.8277C77.7336 38.0493 76.8785 38.2812 75.375 38.2812V44.2812ZM80.8729 43.1833C81.7496 42.7449 82.5874 42.1054 83.1993 41.1875C83.8237 40.2509 84.0938 39.202 84.0938 38.1562H78.0938C78.0938 38.1652 78.0929 38.1297 78.1115 38.0645C78.1308 37.9969 78.1634 37.9247 78.207 37.8593C78.298 37.7228 78.3546 37.7342 78.1896 37.8167L80.8729 43.1833ZM84.0938 38.1562C84.0938 36.1441 83.1629 34.4117 81.4337 33.331L78.2538 38.419C78.2787 38.4346 78.2696 38.4325 78.2433 38.4055C78.2156 38.3771 78.1811 38.3338 78.1503 38.2775C78.1196 38.2215 78.1035 38.1728 78.0963 38.1421C78.0895 38.1134 78.0938 38.1148 78.0938 38.1562H84.0938ZM81.4337 33.331C80.9379 33.0211 80.3327 32.7796 79.8129 32.5921C79.2384 32.3848 78.5389 32.1643 77.7328 31.9309C76.1178 31.4632 73.9518 30.9086 71.2553 30.2686L69.8697 36.1064C72.5274 36.7372 74.5854 37.266 76.064 37.6941C76.8049 37.9086 77.3697 38.0892 77.7769 38.2361C78.2389 38.4027 78.3329 38.4685 78.2538 38.419L81.4337 33.331ZM71.2864 30.2761C67.5668 29.3513 65.4433 28.2991 64.4228 27.3726L60.3897 31.8149C62.5359 33.7634 65.8499 35.1071 69.8386 36.0989L71.2864 30.2761ZM64.4066 27.358C63.615 26.6497 63.0312 25.5158 63.0312 23.4688H57.0312C57.0312 26.755 58.0308 29.7044 60.4059 31.8295L64.4066 27.358ZM63.0312 23.4688C63.0312 21.2193 63.8653 19.3077 65.7442 17.588L61.6933 13.162C58.6555 15.9423 57.0312 19.4265 57.0312 23.4688H63.0312ZM65.7451 17.5872C67.5085 15.972 70.173 14.9688 74.1562 14.9688V8.96875C69.1811 8.96875 64.8873 10.2363 61.6924 13.1628L65.7451 17.5872ZM74.1562 14.9688C78.0281 14.9688 80.8941 15.739 82.9672 17.0407L86.1578 11.9593C82.8559 9.88605 78.7844 8.96875 74.1562 8.96875V14.9688ZM112.312 40.6562H115.312V37.4343L112.099 37.6639L112.312 40.6562ZM112.312 47.3125L112.424 50.3104L115.312 50.2034V47.3125H112.312ZM108.094 47.4688L108.198 50.467L108.205 50.4667L108.094 47.4688ZM99.4688 45.2812L101.632 43.2025L101.622 43.1922L101.612 43.1819L99.4688 45.2812ZM97.9688 19.5938H100.969V16.5938H97.9688V19.5938ZM93.2188 19.5938H90.2188V22.5938H93.2188V19.5938ZM93.2188 13.25V10.25H90.2188V13.25H93.2188ZM97.9688 13.25V16.25H100.969V13.25H97.9688ZM97.9688 3.75V0.75H94.9688V3.75H97.9688ZM106.781 3.75H109.781V0.75H106.781V3.75ZM106.781 13.25H103.781V16.25H106.781V13.25ZM112.312 13.25H115.312V10.25H112.312V13.25ZM112.312 19.5938V22.5938H115.312V19.5938H112.312ZM106.781 19.5938V16.5938H103.781V19.5938H106.781ZM107.312 40.2188L105.191 42.3401L105.223 42.3722L105.256 42.4034L107.312 40.2188ZM111.406 40.7188V43.7188H111.506L111.606 43.7121L111.406 40.7188ZM109.312 40.6562V47.3125H115.312V40.6562H109.312ZM112.201 44.3146L107.983 44.4708L108.205 50.4667L112.424 50.3104L112.201 44.3146ZM107.99 44.4706C103.944 44.6107 102.232 43.8271 101.632 43.2025L97.3057 47.36C99.7888 49.9437 103.827 50.6184 108.198 50.4669L107.99 44.4706ZM101.612 43.1819C101.378 42.9437 100.969 42.2805 100.969 40.5625H94.9688C94.9688 43.0945 95.559 45.5771 97.3257 47.3806L101.612 43.1819ZM100.969 40.5625V19.5938H94.9688V40.5625H100.969ZM97.9688 16.5938H93.2188V22.5938H97.9688V16.5938ZM96.2188 19.5938V13.25H90.2188V19.5938H96.2188ZM93.2188 16.25H97.9688V10.25H93.2188V16.25ZM100.969 13.25V3.75H94.9688V13.25H100.969ZM97.9688 6.75H106.781V0.75H97.9688V6.75ZM103.781 3.75V13.25H109.781V3.75H103.781ZM106.781 16.25H112.312V10.25H106.781V16.25ZM109.312 13.25V19.5938H115.312V13.25H109.312ZM112.312 16.5938H106.781V22.5938H112.312V16.5938ZM103.781 19.5938V37.5938H109.781V19.5938H103.781ZM103.781 37.5938C103.781 38.3933 103.83 39.1814 103.974 39.892C104.099 40.5132 104.382 41.5313 105.191 42.3401L109.434 38.0974C109.686 38.3501 109.798 38.5817 109.834 38.6653C109.872 38.7542 109.87 38.7793 109.854 38.7018C109.84 38.6298 109.82 38.5034 109.805 38.3097C109.79 38.1184 109.781 37.8815 109.781 37.5938H103.781ZM105.256 42.4034C105.777 42.8929 106.352 43.1399 106.729 43.271C107.138 43.4131 107.555 43.5005 107.934 43.5589C108.693 43.6755 109.588 43.7188 110.562 43.7188V37.7188C109.724 37.7188 109.172 37.6787 108.847 37.6286C108.685 37.6037 108.651 37.5869 108.7 37.604C108.729 37.6139 108.806 37.6425 108.912 37.7003C109.017 37.757 109.185 37.8612 109.369 38.0341L105.256 42.4034ZM110.562 43.7188C110.563 43.7188 110.564 43.7188 110.564 43.7188C110.565 43.7188 110.565 43.7188 110.566 43.7188C110.566 43.7188 110.567 43.7188 110.567 43.7188C110.568 43.7188 110.568 43.7188 110.569 43.7188C110.569 43.7188 110.57 43.7188 110.57 43.7188C110.571 43.7188 110.571 43.7188 110.572 43.7188C110.573 43.7188 110.573 43.7188 110.574 43.7188C110.574 43.7188 110.575 43.7188 110.575 43.7188C110.576 43.7188 110.576 43.7188 110.577 43.7188C110.577 43.7188 110.578 43.7188 110.578 43.7188C110.579 43.7188 110.579 43.7188 110.58 43.7188C110.58 43.7188 110.581 43.7188 110.582 43.7188C110.582 43.7188 110.583 43.7188 110.583 43.7188C110.584 43.7188 110.584 43.7188 110.585 43.7188C110.585 43.7188 110.586 43.7188 110.586 43.7188C110.587 43.7188 110.587 43.7188 110.588 43.7188C110.588 43.7188 110.589 43.7188 110.59 43.7188C110.59 43.7188 110.591 43.7188 110.591 43.7188C110.592 43.7188 110.592 43.7188 110.593 43.7188C110.593 43.7188 110.594 43.7188 110.594 43.7188C110.595 43.7188 110.595 43.7188 110.596 43.7188C110.596 43.7188 110.597 43.7188 110.597 43.7188C110.598 43.7188 110.599 43.7188 110.599 43.7188C110.6 43.7188 110.6 43.7188 110.601 43.7188C110.601 43.7188 110.602 43.7188 110.602 43.7188C110.603 43.7188 110.603 43.7188 110.604 43.7188C110.604 43.7188 110.605 43.7188 110.605 43.7188C110.606 43.7188 110.606 43.7188 110.607 43.7188C110.608 43.7188 110.608 43.7188 110.609 43.7188C110.609 43.7188 110.61 43.7188 110.61 43.7188C110.611 43.7188 110.611 43.7188 110.612 43.7188C110.612 43.7188 110.613 43.7188 110.613 43.7188C110.614 43.7188 110.614 43.7188 110.615 43.7188C110.616 43.7188 110.616 43.7188 110.617 43.7188C110.617 43.7188 110.618 43.7188 110.618 43.7188C110.619 43.7188 110.619 43.7188 110.62 43.7188C110.62 43.7188 110.621 43.7188 110.621 43.7188C110.622 43.7188 110.622 43.7188 110.623 43.7188C110.624 43.7188 110.624 43.7188 110.625 43.7188C110.625 43.7188 110.626 43.7188 110.626 43.7188C110.627 43.7188 110.627 43.7188 110.628 43.7188C110.628 43.7188 110.629 43.7188 110.629 43.7188C110.63 43.7188 110.63 43.7188 110.631 43.7188C110.631 43.7188 110.632 43.7188 110.633 43.7188C110.633 43.7188 110.634 43.7188 110.634 43.7188C110.635 43.7188 110.635 43.7188 110.636 43.7188C110.636 43.7188 110.637 43.7188 110.637 43.7188C110.638 43.7188 110.638 43.7188 110.639 43.7188C110.639 43.7188 110.64 43.7188 110.641 43.7188C110.641 43.7188 110.642 43.7188 110.642 43.7188C110.643 43.7188 110.643 43.7188 110.644 43.7188C110.644 43.7188 110.645 43.7188 110.645 43.7188C110.646 43.7188 110.646 43.7188 110.647 43.7188C110.647 43.7188 110.648 43.7188 110.649 43.7188C110.649 43.7188 110.65 43.7188 110.65 43.7188C110.651 43.7188 110.651 43.7188 110.652 43.7188C110.652 43.7188 110.653 43.7188 110.653 43.7188C110.654 43.7188 110.654 43.7188 110.655 43.7188C110.655 43.7188 110.656 43.7188 110.657 43.7188C110.657 43.7188 110.658 43.7188 110.658 43.7188C110.659 43.7188 110.659 43.7188 110.66 43.7188C110.66 43.7188 110.661 43.7188 110.661 43.7188C110.662 43.7188 110.662 43.7188 110.663 43.7188C110.663 43.7188 110.664 43.7188 110.665 43.7188C110.665 43.7188 110.666 43.7188 110.666 43.7188C110.667 43.7188 110.667 43.7188 110.668 43.7188C110.668 43.7188 110.669 43.7188 110.669 43.7188C110.67 43.7188 110.67 43.7188 110.671 43.7188C110.671 43.7188 110.672 43.7188 110.673 43.7188C110.673 43.7188 110.674 43.7188 110.674 43.7188C110.675 43.7188 110.675 43.7188 110.676 43.7188C110.676 43.7188 110.677 43.7188 110.677 43.7188C110.678 43.7188 110.678 43.7188 110.679 43.7188C110.68 43.7188 110.68 43.7188 110.681 43.7188C110.681 43.7188 110.682 43.7188 110.682 43.7188C110.683 43.7188 110.683 43.7188 110.684 43.7188C110.684 43.7188 110.685 43.7188 110.685 43.7188C110.686 43.7188 110.686 43.7188 110.687 43.7188C110.688 43.7188 110.688 43.7188 110.689 43.7188C110.689 43.7188 110.69 43.7188 110.69 43.7188C110.691 43.7188 110.691 43.7188 110.692 43.7188C110.692 43.7188 110.693 43.7188 110.693 43.7188C110.694 43.7188 110.694 43.7188 110.695 43.7188C110.696 43.7188 110.696 43.7188 110.697 43.7188C110.697 43.7188 110.698 43.7188 110.698 43.7188C110.699 43.7188 110.699 43.7188 110.7 43.7188C110.7 43.7188 110.701 43.7188 110.701 43.7188C110.702 43.7188 110.703 43.7188 110.703 43.7188C110.704 43.7188 110.704 43.7188 110.705 43.7188C110.705 43.7188 110.706 43.7188 110.706 43.7188C110.707 43.7188 110.707 43.7188 110.708 43.7188C110.708 43.7188 110.709 43.7188 110.71 43.7188C110.71 43.7188 110.711 43.7188 110.711 43.7188C110.712 43.7188 110.712 43.7188 110.713 43.7188C110.713 43.7188 110.714 43.7188 110.714 43.7188C110.715 43.7188 110.715 43.7188 110.716 43.7188C110.716 43.7188 110.717 43.7188 110.718 43.7188C110.718 43.7188 110.719 43.7188 110.719 43.7188C110.72 43.7188 110.72 43.7188 110.721 43.7188C110.721 43.7188 110.722 43.7188 110.722 43.7188C110.723 43.7188 110.723 43.7188 110.724 43.7188C110.725 43.7188 110.725 43.7188 110.726 43.7188C110.726 43.7188 110.727 43.7188 110.727 43.7188C110.728 43.7188 110.728 43.7188 110.729 43.7188C110.729 43.7188 110.73 43.7188 110.73 43.7188C110.731 43.7188 110.732 43.7188 110.732 43.7188C110.733 43.7188 110.733 43.7188 110.734 43.7188C110.734 43.7188 110.735 43.7188 110.735 43.7188C110.736 43.7188 110.736 43.7188 110.737 43.7188C110.737 43.7188 110.738 43.7188 110.739 43.7188C110.739 43.7188 110.74 43.7188 110.74 43.7188C110.741 43.7188 110.741 43.7188 110.742 43.7188C110.742 43.7188 110.743 43.7188 110.743 43.7188C110.744 43.7188 110.744 43.7188 110.745 43.7188C110.745 43.7188 110.746 43.7188 110.747 43.7188C110.747 43.7188 110.748 43.7188 110.748 43.7188C110.749 43.7188 110.749 43.7188 110.75 43.7188C110.75 43.7188 110.751 43.7188 110.751 43.7188C110.752 43.7188 110.752 43.7188 110.753 43.7188C110.754 43.7188 110.754 43.7188 110.755 43.7188C110.755 43.7188 110.756 43.7188 110.756 43.7188C110.757 43.7188 110.757 43.7188 110.758 43.7188C110.758 43.7188 110.759 43.7188 110.759 43.7188C110.76 43.7188 110.761 43.7188 110.761 43.7188C110.762 43.7188 110.762 43.7188 110.763 43.7188C110.763 43.7188 110.764 43.7188 110.764 43.7188C110.765 43.7188 110.765 43.7188 110.766 43.7188C110.767 43.7188 110.767 43.7188 110.768 43.7188C110.768 43.7188 110.769 43.7188 110.769 43.7188C110.77 43.7188 110.77 43.7188 110.771 43.7188C110.771 43.7188 110.772 43.7188 110.772 43.7188C110.773 43.7188 110.774 43.7188 110.774 43.7188C110.775 43.7188 110.775 43.7188 110.776 43.7188C110.776 43.7188 110.777 43.7188 110.777 43.7188C110.778 43.7188 110.778 43.7188 110.779 43.7188C110.779 43.7188 110.78 43.7188 110.781 43.7188C110.781 43.7188 110.782 43.7188 110.782 43.7188C110.783 43.7188 110.783 43.7188 110.784 43.7188C110.784 43.7188 110.785 43.7188 110.785 43.7188C110.786 43.7188 110.786 43.7188 110.787 43.7188C110.788 43.7188 110.788 43.7188 110.789 43.7188C110.789 43.7188 110.79 43.7188 110.79 43.7188C110.791 43.7188 110.791 43.7188 110.792 43.7188C110.792 43.7188 110.793 43.7188 110.793 43.7188C110.794 43.7188 110.795 43.7188 110.795 43.7188C110.796 43.7188 110.796 43.7188 110.797 43.7188C110.797 43.7188 110.798 43.7188 110.798 43.7188C110.799 43.7188 110.799 43.7188 110.8 43.7188C110.801 43.7188 110.801 43.7188 110.802 43.7188C110.802 43.7188 110.803 43.7188 110.803 43.7188C110.804 43.7188 110.804 43.7188 110.805 43.7188C110.805 43.7188 110.806 43.7188 110.806 43.7188C110.807 43.7188 110.808 43.7188 110.808 43.7188C110.809 43.7188 110.809 43.7188 110.81 43.7188C110.81 43.7188 110.811 43.7188 110.811 43.7188C110.812 43.7188 110.812 43.7188 110.813 43.7188C110.813 43.7188 110.814 43.7188 110.815 43.7188C110.815 43.7188 110.816 43.7188 110.816 43.7188C110.817 43.7188 110.817 43.7188 110.818 43.7188C110.818 43.7188 110.819 43.7188 110.819 43.7188C110.82 43.7188 110.821 43.7188 110.821 43.7188C110.822 43.7188 110.822 43.7188 110.823 43.7188C110.823 43.7188 110.824 43.7188 110.824 43.7188C110.825 43.7188 110.825 43.7188 110.826 43.7188C110.826 43.7188 110.827 43.7188 110.828 43.7188C110.828 43.7188 110.829 43.7188 110.829 43.7188C110.83 43.7188 110.83 43.7188 110.831 43.7188C110.831 43.7188 110.832 43.7188 110.832 43.7188C110.833 43.7188 110.834 43.7188 110.834 43.7188C110.835 43.7188 110.835 43.7188 110.836 43.7188C110.836 43.7188 110.837 43.7188 110.837 43.7188C110.838 43.7188 110.838 43.7188 110.839 43.7188C110.84 43.7188 110.84 43.7188 110.841 43.7188C110.841 43.7188 110.842 43.7188 110.842 43.7188C110.843 43.7188 110.843 43.7188 110.844 43.7188C110.844 43.7188 110.845 43.7188 110.845 43.7188C110.846 43.7188 110.847 43.7188 110.847 43.7188C110.848 43.7188 110.848 43.7188 110.849 43.7188C110.849 43.7188 110.85 43.7188 110.85 43.7188C110.851 43.7188 110.851 43.7188 110.852 43.7188C110.853 43.7188 110.853 43.7188 110.854 43.7188C110.854 43.7188 110.855 43.7188 110.855 43.7188C110.856 43.7188 110.856 43.7188 110.857 43.7188C110.857 43.7188 110.858 43.7188 110.859 43.7188C110.859 43.7188 110.86 43.7188 110.86 43.7188C110.861 43.7188 110.861 43.7188 110.862 43.7188C110.862 43.7188 110.863 43.7188 110.863 43.7188C110.864 43.7188 110.865 43.7188 110.865 43.7188C110.866 43.7188 110.866 43.7188 110.867 43.7188C110.867 43.7188 110.868 43.7188 110.868 43.7188C110.869 43.7188 110.869 43.7188 110.87 43.7188C110.87 43.7188 110.871 43.7188 110.872 43.7188C110.872 43.7188 110.873 43.7188 110.873 43.7188C110.874 43.7188 110.874 43.7188 110.875 43.7188C110.875 43.7188 110.876 43.7188 110.876 43.7188C110.877 43.7188 110.878 43.7188 110.878 43.7188C110.879 43.7188 110.879 43.7188 110.88 43.7188C110.88 43.7188 110.881 43.7188 110.881 43.7188C110.882 43.7188 110.882 43.7188 110.883 43.7188C110.884 43.7188 110.884 43.7188 110.885 43.7188C110.885 43.7188 110.886 43.7188 110.886 43.7188C110.887 43.7188 110.887 43.7188 110.888 43.7188C110.888 43.7188 110.889 43.7188 110.89 43.7188C110.89 43.7188 110.891 43.7188 110.891 43.7188C110.892 43.7188 110.892 43.7188 110.893 43.7188C110.893 43.7188 110.894 43.7188 110.894 43.7188C110.895 43.7188 110.896 43.7188 110.896 43.7188C110.897 43.7188 110.897 43.7188 110.898 43.7188C110.898 43.7188 110.899 43.7188 110.899 43.7188C110.9 43.7188 110.9 43.7188 110.901 43.7188C110.902 43.7188 110.902 43.7188 110.903 43.7188C110.903 43.7188 110.904 43.7188 110.904 43.7188C110.905 43.7188 110.905 43.7188 110.906 43.7188C110.906 43.7188 110.907 43.7188 110.908 43.7188C110.908 43.7188 110.909 43.7188 110.909 43.7188C110.91 43.7188 110.91 43.7188 110.911 43.7188C110.911 43.7188 110.912 43.7188 110.912 43.7188C110.913 43.7188 110.914 43.7188 110.914 43.7188C110.915 43.7188 110.915 43.7188 110.916 43.7188C110.916 43.7188 110.917 43.7188 110.917 43.7188C110.918 43.7188 110.918 43.7188 110.919 43.7188C110.92 43.7188 110.92 43.7188 110.921 43.7188C110.921 43.7188 110.922 43.7188 110.922 43.7188C110.923 43.7188 110.923 43.7188 110.924 43.7188C110.924 43.7188 110.925 43.7188 110.926 43.7188C110.926 43.7188 110.927 43.7188 110.927 43.7188C110.928 43.7188 110.928 43.7188 110.929 43.7188C110.929 43.7188 110.93 43.7188 110.931 43.7188C110.931 43.7188 110.932 43.7188 110.932 43.7188C110.933 43.7188 110.933 43.7188 110.934 43.7188C110.934 43.7188 110.935 43.7188 110.935 43.7188C110.936 43.7188 110.937 43.7188 110.937 43.7188C110.938 43.7188 110.938 43.7188 110.939 43.7188C110.939 43.7188 110.94 43.7188 110.94 43.7188C110.941 43.7188 110.941 43.7188 110.942 43.7188C110.943 43.7188 110.943 43.7188 110.944 43.7188C110.944 43.7188 110.945 43.7188 110.945 43.7188C110.946 43.7188 110.946 43.7188 110.947 43.7188C110.947 43.7188 110.948 43.7188 110.949 43.7188C110.949 43.7188 110.95 43.7188 110.95 43.7188C110.951 43.7188 110.951 43.7188 110.952 43.7188C110.952 43.7188 110.953 43.7188 110.954 43.7188C110.954 43.7188 110.955 43.7188 110.955 43.7188C110.956 43.7188 110.956 43.7188 110.957 43.7188C110.957 43.7188 110.958 43.7188 110.958 43.7188C110.959 43.7188 110.96 43.7188 110.96 43.7188C110.961 43.7188 110.961 43.7188 110.962 43.7188C110.962 43.7188 110.963 43.7188 110.963 43.7188C110.964 43.7188 110.964 43.7188 110.965 43.7188C110.966 43.7188 110.966 43.7188 110.967 43.7188C110.967 43.7188 110.968 43.7188 110.968 43.7188C110.969 43.7188 110.969 43.7188 110.97 43.7188C110.971 43.7188 110.971 43.7188 110.972 43.7188C110.972 43.7188 110.973 43.7188 110.973 43.7188C110.974 43.7188 110.974 43.7188 110.975 43.7188C110.975 43.7188 110.976 43.7188 110.977 43.7188C110.977 43.7188 110.978 43.7188 110.978 43.7188C110.979 43.7188 110.979 43.7188 110.98 43.7188C110.98 43.7188 110.981 43.7188 110.982 43.7188C110.982 43.7188 110.983 43.7188 110.983 43.7188C110.984 43.7188 110.984 43.7188 110.985 43.7188C110.985 43.7188 110.986 43.7188 110.986 43.7188C110.987 43.7188 110.988 43.7188 110.988 43.7188C110.989 43.7188 110.989 43.7188 110.99 43.7188C110.99 43.7188 110.991 43.7188 110.991 43.7188C110.992 43.7188 110.993 43.7188 110.993 43.7188C110.994 43.7188 110.994 43.7188 110.995 43.7188C110.995 43.7188 110.996 43.7188 110.996 43.7188C110.997 43.7188 110.997 43.7188 110.998 43.7188C110.999 43.7188 110.999 43.7188 111 43.7188C111 43.7188 111.001 43.7188 111.001 43.7188C111.002 43.7188 111.002 43.7188 111.003 43.7188C111.004 43.7188 111.004 43.7188 111.005 43.7188C111.005 43.7188 111.006 43.7188 111.006 43.7188C111.007 43.7188 111.007 43.7188 111.008 43.7188C111.008 43.7188 111.009 43.7188 111.01 43.7188C111.01 43.7188 111.011 43.7188 111.011 43.7188C111.012 43.7188 111.012 43.7188 111.013 43.7188C111.013 43.7188 111.014 43.7188 111.015 43.7188C111.015 43.7188 111.016 43.7188 111.016 43.7188C111.017 43.7188 111.017 43.7188 111.018 43.7188C111.018 43.7188 111.019 43.7188 111.019 43.7188C111.02 43.7188 111.021 43.7188 111.021 43.7188C111.022 43.7188 111.022 43.7188 111.023 43.7188C111.023 43.7188 111.024 43.7188 111.024 43.7188C111.025 43.7188 111.026 43.7188 111.026 43.7188C111.027 43.7188 111.027 43.7188 111.028 43.7188C111.028 43.7188 111.029 43.7188 111.029 43.7188C111.03 43.7188 111.031 43.7188 111.031 43.7188C111.032 43.7188 111.032 43.7188 111.033 43.7188C111.033 43.7188 111.034 43.7188 111.034 43.7188C111.035 43.7188 111.035 43.7188 111.036 43.7188C111.037 43.7188 111.037 43.7188 111.038 43.7188C111.038 43.7188 111.039 43.7188 111.039 43.7188C111.04 43.7188 111.04 43.7188 111.041 43.7188C111.042 43.7188 111.042 43.7188 111.043 43.7188C111.043 43.7188 111.044 43.7188 111.044 43.7188C111.045 43.7188 111.045 43.7188 111.046 43.7188C111.047 43.7188 111.047 43.7188 111.048 43.7188C111.048 43.7188 111.049 43.7188 111.049 43.7188C111.05 43.7188 111.05 43.7188 111.051 43.7188C111.052 43.7188 111.052 43.7188 111.053 43.7188C111.053 43.7188 111.054 43.7188 111.054 43.7188C111.055 43.7188 111.055 43.7188 111.056 43.7188C111.056 43.7188 111.057 43.7188 111.058 43.7188C111.058 43.7188 111.059 43.7188 111.059 43.7188C111.06 43.7188 111.06 43.7188 111.061 43.7188C111.061 43.7188 111.062 43.7188 111.063 43.7188C111.063 43.7188 111.064 43.7188 111.064 43.7188C111.065 43.7188 111.065 43.7188 111.066 43.7188C111.066 43.7188 111.067 43.7188 111.068 43.7188C111.068 43.7188 111.069 43.7188 111.069 43.7188C111.07 43.7188 111.07 43.7188 111.071 43.7188C111.071 43.7188 111.072 43.7188 111.073 43.7188C111.073 43.7188 111.074 43.7188 111.074 43.7188C111.075 43.7188 111.075 43.7188 111.076 43.7188C111.076 43.7188 111.077 43.7188 111.078 43.7188C111.078 43.7188 111.079 43.7188 111.079 43.7188C111.08 43.7188 111.08 43.7188 111.081 43.7188C111.081 43.7188 111.082 43.7188 111.083 43.7188C111.083 43.7188 111.084 43.7188 111.084 43.7188C111.085 43.7188 111.085 43.7188 111.086 43.7188C111.086 43.7188 111.087 43.7188 111.088 43.7188C111.088 43.7188 111.089 43.7188 111.089 43.7188C111.09 43.7188 111.09 43.7188 111.091 43.7188C111.091 43.7188 111.092 43.7188 111.093 43.7188C111.093 43.7188 111.094 43.7188 111.094 43.7188C111.095 43.7188 111.095 43.7188 111.096 43.7188C111.096 43.7188 111.097 43.7188 111.097 43.7188C111.098 43.7188 111.099 43.7188 111.099 43.7188C111.1 43.7188 111.1 43.7188 111.101 43.7188C111.101 43.7188 111.102 43.7188 111.102 43.7188C111.103 43.7188 111.104 43.7188 111.104 43.7188C111.105 43.7188 111.105 43.7188 111.106 43.7188C111.106 43.7188 111.107 43.7188 111.107 43.7188C111.108 43.7188 111.109 43.7188 111.109 43.7188C111.11 43.7188 111.11 43.7188 111.111 43.7188C111.111 43.7188 111.112 43.7188 111.112 43.7188C111.113 43.7188 111.114 43.7188 111.114 43.7188C111.115 43.7188 111.115 43.7188 111.116 43.7188C111.116 43.7188 111.117 43.7188 111.118 43.7188C111.118 43.7188 111.119 43.7188 111.119 43.7188C111.12 43.7188 111.12 43.7188 111.121 43.7188C111.121 43.7188 111.122 43.7188 111.123 43.7188C111.123 43.7188 111.124 43.7188 111.124 43.7188C111.125 43.7188 111.125 43.7188 111.126 43.7188C111.126 43.7188 111.127 43.7188 111.128 43.7188C111.128 43.7188 111.129 43.7188 111.129 43.7188C111.13 43.7188 111.13 43.7188 111.131 43.7188C111.131 43.7188 111.132 43.7188 111.133 43.7188C111.133 43.7188 111.134 43.7188 111.134 43.7188C111.135 43.7188 111.135 43.7188 111.136 43.7188C111.136 43.7188 111.137 43.7188 111.138 43.7188C111.138 43.7188 111.139 43.7188 111.139 43.7188C111.14 43.7188 111.14 43.7188 111.141 43.7188C111.141 43.7188 111.142 43.7188 111.143 43.7188C111.143 43.7188 111.144 43.7188 111.144 43.7188C111.145 43.7188 111.145 43.7188 111.146 43.7188C111.146 43.7188 111.147 43.7188 111.148 43.7188C111.148 43.7188 111.149 43.7188 111.149 43.7188C111.15 43.7188 111.15 43.7188 111.151 43.7188C111.151 43.7188 111.152 43.7188 111.153 43.7188C111.153 43.7188 111.154 43.7188 111.154 43.7188C111.155 43.7188 111.155 43.7188 111.156 43.7188C111.156 43.7188 111.157 43.7188 111.158 43.7188C111.158 43.7188 111.159 43.7188 111.159 43.7188C111.16 43.7188 111.16 43.7188 111.161 43.7188C111.162 43.7188 111.162 43.7188 111.163 43.7188C111.163 43.7188 111.164 43.7188 111.164 43.7188C111.165 43.7188 111.165 43.7188 111.166 43.7188C111.167 43.7188 111.167 43.7188 111.168 43.7188C111.168 43.7188 111.169 43.7188 111.169 43.7188C111.17 43.7188 111.17 43.7188 111.171 43.7188C111.172 43.7188 111.172 43.7188 111.173 43.7188C111.173 43.7188 111.174 43.7188 111.174 43.7188C111.175 43.7188 111.175 43.7188 111.176 43.7188C111.177 43.7188 111.177 43.7188 111.178 43.7188C111.178 43.7188 111.179 43.7188 111.179 43.7188C111.18 43.7188 111.181 43.7188 111.181 43.7188C111.182 43.7188 111.182 43.7188 111.183 43.7188C111.183 43.7188 111.184 43.7188 111.184 43.7188C111.185 43.7188 111.186 43.7188 111.186 43.7188C111.187 43.7188 111.187 43.7188 111.188 43.7188C111.188 43.7188 111.189 43.7188 111.189 43.7188C111.19 43.7188 111.191 43.7188 111.191 43.7188C111.192 43.7188 111.192 43.7188 111.193 43.7188C111.193 43.7188 111.194 43.7188 111.194 43.7188C111.195 43.7188 111.196 43.7188 111.196 43.7188C111.197 43.7188 111.197 43.7188 111.198 43.7188C111.198 43.7188 111.199 43.7188 111.2 43.7188C111.2 43.7188 111.201 43.7188 111.201 43.7188C111.202 43.7188 111.202 43.7188 111.203 43.7188C111.203 43.7188 111.204 43.7188 111.205 43.7188C111.205 43.7188 111.206 43.7188 111.206 43.7188C111.207 43.7188 111.207 43.7188 111.208 43.7188C111.208 43.7188 111.209 43.7188 111.21 43.7188C111.21 43.7188 111.211 43.7188 111.211 43.7188C111.212 43.7188 111.212 43.7188 111.213 43.7188C111.214 43.7188 111.214 43.7188 111.215 43.7188C111.215 43.7188 111.216 43.7188 111.216 43.7188C111.217 43.7188 111.217 43.7188 111.218 43.7188C111.219 43.7188 111.219 43.7188 111.22 43.7188C111.22 43.7188 111.221 43.7188 111.221 43.7188C111.222 43.7188 111.223 43.7188 111.223 43.7188C111.224 43.7188 111.224 43.7188 111.225 43.7188C111.225 43.7188 111.226 43.7188 111.226 43.7188C111.227 43.7188 111.228 43.7188 111.228 43.7188C111.229 43.7188 111.229 43.7188 111.23 43.7188C111.23 43.7188 111.231 43.7188 111.231 43.7188C111.232 43.7188 111.233 43.7188 111.233 43.7188C111.234 43.7188 111.234 43.7188 111.235 43.7188C111.235 43.7188 111.236 43.7188 111.237 43.7188C111.237 43.7188 111.238 43.7188 111.238 43.7188C111.239 43.7188 111.239 43.7188 111.24 43.7188C111.24 43.7188 111.241 43.7188 111.242 43.7188C111.242 43.7188 111.243 43.7188 111.243 43.7188C111.244 43.7188 111.244 43.7188 111.245 43.7188C111.246 43.7188 111.246 43.7188 111.247 43.7188C111.247 43.7188 111.248 43.7188 111.248 43.7188C111.249 43.7188 111.249 43.7188 111.25 43.7188C111.251 43.7188 111.251 43.7188 111.252 43.7188C111.252 43.7188 111.253 43.7188 111.253 43.7188C111.254 43.7188 111.255 43.7188 111.255 43.7188C111.256 43.7188 111.256 43.7188 111.257 43.7188C111.257 43.7188 111.258 43.7188 111.258 43.7188C111.259 43.7188 111.26 43.7188 111.26 43.7188C111.261 43.7188 111.261 43.7188 111.262 43.7188C111.262 43.7188 111.263 43.7188 111.264 43.7188C111.264 43.7188 111.265 43.7188 111.265 43.7188C111.266 43.7188 111.266 43.7188 111.267 43.7188C111.267 43.7188 111.268 43.7188 111.269 43.7188C111.269 43.7188 111.27 43.7188 111.27 43.7188C111.271 43.7188 111.271 43.7188 111.272 43.7188C111.273 43.7188 111.273 43.7188 111.274 43.7188C111.274 43.7188 111.275 43.7188 111.275 43.7188C111.276 43.7188 111.276 43.7188 111.277 43.7188C111.278 43.7188 111.278 43.7188 111.279 43.7188C111.279 43.7188 111.28 43.7188 111.28 43.7188C111.281 43.7188 111.282 43.7188 111.282 43.7188C111.283 43.7188 111.283 43.7188 111.284 43.7188C111.284 43.7188 111.285 43.7188 111.286 43.7188C111.286 43.7188 111.287 43.7188 111.287 43.7188C111.288 43.7188 111.288 43.7188 111.289 43.7188C111.289 43.7188 111.29 43.7188 111.291 43.7188C111.291 43.7188 111.292 43.7188 111.292 43.7188C111.293 43.7188 111.293 43.7188 111.294 43.7188C111.295 43.7188 111.295 43.7188 111.296 43.7188C111.296 43.7188 111.297 43.7188 111.297 43.7188C111.298 43.7188 111.298 43.7188 111.299 43.7188C111.3 43.7188 111.3 43.7188 111.301 43.7188C111.301 43.7188 111.302 43.7188 111.302 43.7188C111.303 43.7188 111.304 43.7188 111.304 43.7188C111.305 43.7188 111.305 43.7188 111.306 43.7188C111.306 43.7188 111.307 43.7188 111.308 43.7188C111.308 43.7188 111.309 43.7188 111.309 43.7188C111.31 43.7188 111.31 43.7188 111.311 43.7188C111.311 43.7188 111.312 43.7188 111.313 43.7188C111.313 43.7188 111.314 43.7188 111.314 43.7188C111.315 43.7188 111.315 43.7188 111.316 43.7188C111.317 43.7188 111.317 43.7188 111.318 43.7188C111.318 43.7188 111.319 43.7188 111.319 43.7188C111.32 43.7188 111.321 43.7188 111.321 43.7188C111.322 43.7188 111.322 43.7188 111.323 43.7188C111.323 43.7188 111.324 43.7188 111.324 43.7188C111.325 43.7188 111.326 43.7188 111.326 43.7188C111.327 43.7188 111.327 43.7188 111.328 43.7188C111.328 43.7188 111.329 43.7188 111.33 43.7188C111.33 43.7188 111.331 43.7188 111.331 43.7188C111.332 43.7188 111.332 43.7188 111.333 43.7188C111.334 43.7188 111.334 43.7188 111.335 43.7188C111.335 43.7188 111.336 43.7188 111.336 43.7188C111.337 43.7188 111.338 43.7188 111.338 43.7188C111.339 43.7188 111.339 43.7188 111.34 43.7188C111.34 43.7188 111.341 43.7188 111.341 43.7188C111.342 43.7188 111.343 43.7188 111.343 43.7188C111.344 43.7188 111.344 43.7188 111.345 43.7188C111.345 43.7188 111.346 43.7188 111.347 43.7188C111.347 43.7188 111.348 43.7188 111.348 43.7188C111.349 43.7188 111.349 43.7188 111.35 43.7188C111.351 43.7188 111.351 43.7188 111.352 43.7188C111.352 43.7188 111.353 43.7188 111.353 43.7188C111.354 43.7188 111.355 43.7188 111.355 43.7188C111.356 43.7188 111.356 43.7188 111.357 43.7188C111.357 43.7188 111.358 43.7188 111.358 43.7188C111.359 43.7188 111.36 43.7188 111.36 43.7188C111.361 43.7188 111.361 43.7188 111.362 43.7188C111.362 43.7188 111.363 43.7188 111.364 43.7188C111.364 43.7188 111.365 43.7188 111.365 43.7188C111.366 43.7188 111.366 43.7188 111.367 43.7188C111.368 43.7188 111.368 43.7188 111.369 43.7188C111.369 43.7188 111.37 43.7188 111.37 43.7188C111.371 43.7188 111.372 43.7188 111.372 43.7188C111.373 43.7188 111.373 43.7188 111.374 43.7188C111.374 43.7188 111.375 43.7188 111.376 43.7188C111.376 43.7188 111.377 43.7188 111.377 43.7188C111.378 43.7188 111.378 43.7188 111.379 43.7188C111.38 43.7188 111.38 43.7188 111.381 43.7188C111.381 43.7188 111.382 43.7188 111.382 43.7188C111.383 43.7188 111.383 43.7188 111.384 43.7188C111.385 43.7188 111.385 43.7188 111.386 43.7188C111.386 43.7188 111.387 43.7188 111.387 43.7188C111.388 43.7188 111.389 43.7188 111.389 43.7188C111.39 43.7188 111.39 43.7188 111.391 43.7188C111.391 43.7188 111.392 43.7188 111.393 43.7188C111.393 43.7188 111.394 43.7188 111.394 43.7188C111.395 43.7188 111.395 43.7188 111.396 43.7188C111.397 43.7188 111.397 43.7188 111.398 43.7188C111.398 43.7188 111.399 43.7188 111.399 43.7188C111.4 43.7188 111.401 43.7188 111.401 43.7188C111.402 43.7188 111.402 43.7188 111.403 43.7188C111.403 43.7188 111.404 43.7188 111.405 43.7188C111.405 43.7188 111.406 43.7188 111.406 43.7188V37.7188C111.406 37.7188 111.405 37.7188 111.405 37.7188C111.404 37.7188 111.403 37.7188 111.403 37.7188C111.402 37.7188 111.402 37.7188 111.401 37.7188C111.401 37.7188 111.4 37.7188 111.399 37.7188C111.399 37.7188 111.398 37.7188 111.398 37.7188C111.397 37.7188 111.397 37.7188 111.396 37.7188C111.395 37.7188 111.395 37.7188 111.394 37.7188C111.394 37.7188 111.393 37.7188 111.393 37.7188C111.392 37.7188 111.391 37.7188 111.391 37.7188C111.39 37.7188 111.39 37.7188 111.389 37.7188C111.389 37.7188 111.388 37.7188 111.387 37.7188C111.387 37.7188 111.386 37.7188 111.386 37.7188C111.385 37.7188 111.385 37.7188 111.384 37.7188C111.383 37.7188 111.383 37.7188 111.382 37.7188C111.382 37.7188 111.381 37.7188 111.381 37.7188C111.38 37.7188 111.38 37.7188 111.379 37.7188C111.378 37.7188 111.378 37.7188 111.377 37.7188C111.377 37.7188 111.376 37.7188 111.376 37.7188C111.375 37.7188 111.374 37.7188 111.374 37.7188C111.373 37.7188 111.373 37.7188 111.372 37.7188C111.372 37.7188 111.371 37.7188 111.37 37.7188C111.37 37.7188 111.369 37.7188 111.369 37.7188C111.368 37.7188 111.368 37.7188 111.367 37.7188C111.366 37.7188 111.366 37.7188 111.365 37.7188C111.365 37.7188 111.364 37.7188 111.364 37.7188C111.363 37.7188 111.362 37.7188 111.362 37.7188C111.361 37.7188 111.361 37.7188 111.36 37.7188C111.36 37.7188 111.359 37.7188 111.358 37.7188C111.358 37.7188 111.357 37.7188 111.357 37.7188C111.356 37.7188 111.356 37.7188 111.355 37.7188C111.355 37.7188 111.354 37.7188 111.353 37.7188C111.353 37.7188 111.352 37.7188 111.352 37.7188C111.351 37.7188 111.351 37.7188 111.35 37.7188C111.349 37.7188 111.349 37.7188 111.348 37.7188C111.348 37.7188 111.347 37.7188 111.347 37.7188C111.346 37.7188 111.345 37.7188 111.345 37.7188C111.344 37.7188 111.344 37.7188 111.343 37.7188C111.343 37.7188 111.342 37.7188 111.341 37.7188C111.341 37.7188 111.34 37.7188 111.34 37.7188C111.339 37.7188 111.339 37.7188 111.338 37.7188C111.338 37.7188 111.337 37.7188 111.336 37.7188C111.336 37.7188 111.335 37.7188 111.335 37.7188C111.334 37.7188 111.334 37.7188 111.333 37.7188C111.332 37.7188 111.332 37.7188 111.331 37.7188C111.331 37.7188 111.33 37.7188 111.33 37.7188C111.329 37.7188 111.328 37.7188 111.328 37.7188C111.327 37.7188 111.327 37.7188 111.326 37.7188C111.326 37.7188 111.325 37.7188 111.324 37.7188C111.324 37.7188 111.323 37.7188 111.323 37.7188C111.322 37.7188 111.322 37.7188 111.321 37.7188C111.321 37.7188 111.32 37.7188 111.319 37.7188C111.319 37.7188 111.318 37.7188 111.318 37.7188C111.317 37.7188 111.317 37.7188 111.316 37.7188C111.315 37.7188 111.315 37.7188 111.314 37.7188C111.314 37.7188 111.313 37.7188 111.313 37.7188C111.312 37.7188 111.311 37.7188 111.311 37.7188C111.31 37.7188 111.31 37.7188 111.309 37.7188C111.309 37.7188 111.308 37.7188 111.308 37.7188C111.307 37.7188 111.306 37.7188 111.306 37.7188C111.305 37.7188 111.305 37.7188 111.304 37.7188C111.304 37.7188 111.303 37.7188 111.302 37.7188C111.302 37.7188 111.301 37.7188 111.301 37.7188C111.3 37.7188 111.3 37.7188 111.299 37.7188C111.298 37.7188 111.298 37.7188 111.297 37.7188C111.297 37.7188 111.296 37.7188 111.296 37.7188C111.295 37.7188 111.295 37.7188 111.294 37.7188C111.293 37.7188 111.293 37.7188 111.292 37.7188C111.292 37.7188 111.291 37.7188 111.291 37.7188C111.29 37.7188 111.289 37.7188 111.289 37.7188C111.288 37.7188 111.288 37.7188 111.287 37.7188C111.287 37.7188 111.286 37.7188 111.286 37.7188C111.285 37.7188 111.284 37.7188 111.284 37.7188C111.283 37.7188 111.283 37.7188 111.282 37.7188C111.282 37.7188 111.281 37.7188 111.28 37.7188C111.28 37.7188 111.279 37.7188 111.279 37.7188C111.278 37.7188 111.278 37.7188 111.277 37.7188C111.276 37.7188 111.276 37.7188 111.275 37.7188C111.275 37.7188 111.274 37.7188 111.274 37.7188C111.273 37.7188 111.273 37.7188 111.272 37.7188C111.271 37.7188 111.271 37.7188 111.27 37.7188C111.27 37.7188 111.269 37.7188 111.269 37.7188C111.268 37.7188 111.267 37.7188 111.267 37.7188C111.266 37.7188 111.266 37.7188 111.265 37.7188C111.265 37.7188 111.264 37.7188 111.264 37.7188C111.263 37.7188 111.262 37.7188 111.262 37.7188C111.261 37.7188 111.261 37.7188 111.26 37.7188C111.26 37.7188 111.259 37.7188 111.258 37.7188C111.258 37.7188 111.257 37.7188 111.257 37.7188C111.256 37.7188 111.256 37.7188 111.255 37.7188C111.255 37.7188 111.254 37.7188 111.253 37.7188C111.253 37.7188 111.252 37.7188 111.252 37.7188C111.251 37.7188 111.251 37.7188 111.25 37.7188C111.249 37.7188 111.249 37.7188 111.248 37.7188C111.248 37.7188 111.247 37.7188 111.247 37.7188C111.246 37.7188 111.246 37.7188 111.245 37.7188C111.244 37.7188 111.244 37.7188 111.243 37.7188C111.243 37.7188 111.242 37.7188 111.242 37.7188C111.241 37.7188 111.24 37.7188 111.24 37.7188C111.239 37.7188 111.239 37.7188 111.238 37.7188C111.238 37.7188 111.237 37.7188 111.237 37.7188C111.236 37.7188 111.235 37.7188 111.235 37.7188C111.234 37.7188 111.234 37.7188 111.233 37.7188C111.233 37.7188 111.232 37.7188 111.231 37.7188C111.231 37.7188 111.23 37.7188 111.23 37.7188C111.229 37.7188 111.229 37.7188 111.228 37.7188C111.228 37.7188 111.227 37.7188 111.226 37.7188C111.226 37.7188 111.225 37.7188 111.225 37.7188C111.224 37.7188 111.224 37.7188 111.223 37.7188C111.223 37.7188 111.222 37.7188 111.221 37.7188C111.221 37.7188 111.22 37.7188 111.22 37.7188C111.219 37.7188 111.219 37.7188 111.218 37.7188C111.217 37.7188 111.217 37.7188 111.216 37.7188C111.216 37.7188 111.215 37.7188 111.215 37.7188C111.214 37.7188 111.214 37.7188 111.213 37.7188C111.212 37.7188 111.212 37.7188 111.211 37.7188C111.211 37.7188 111.21 37.7188 111.21 37.7188C111.209 37.7188 111.208 37.7188 111.208 37.7188C111.207 37.7188 111.207 37.7188 111.206 37.7188C111.206 37.7188 111.205 37.7188 111.205 37.7188C111.204 37.7188 111.203 37.7188 111.203 37.7188C111.202 37.7188 111.202 37.7188 111.201 37.7188C111.201 37.7188 111.2 37.7188 111.2 37.7188C111.199 37.7188 111.198 37.7188 111.198 37.7188C111.197 37.7188 111.197 37.7188 111.196 37.7188C111.196 37.7188 111.195 37.7188 111.194 37.7188C111.194 37.7188 111.193 37.7188 111.193 37.7188C111.192 37.7188 111.192 37.7188 111.191 37.7188C111.191 37.7188 111.19 37.7188 111.189 37.7188C111.189 37.7188 111.188 37.7188 111.188 37.7188C111.187 37.7188 111.187 37.7188 111.186 37.7188C111.186 37.7188 111.185 37.7188 111.184 37.7188C111.184 37.7188 111.183 37.7188 111.183 37.7188C111.182 37.7188 111.182 37.7188 111.181 37.7188C111.181 37.7188 111.18 37.7188 111.179 37.7188C111.179 37.7188 111.178 37.7188 111.178 37.7188C111.177 37.7188 111.177 37.7188 111.176 37.7188C111.175 37.7188 111.175 37.7188 111.174 37.7188C111.174 37.7188 111.173 37.7188 111.173 37.7188C111.172 37.7188 111.172 37.7188 111.171 37.7188C111.17 37.7188 111.17 37.7188 111.169 37.7188C111.169 37.7188 111.168 37.7188 111.168 37.7188C111.167 37.7188 111.167 37.7188 111.166 37.7188C111.165 37.7188 111.165 37.7188 111.164 37.7188C111.164 37.7188 111.163 37.7188 111.163 37.7188C111.162 37.7188 111.162 37.7188 111.161 37.7188C111.16 37.7188 111.16 37.7188 111.159 37.7188C111.159 37.7188 111.158 37.7188 111.158 37.7188C111.157 37.7188 111.156 37.7188 111.156 37.7188C111.155 37.7188 111.155 37.7188 111.154 37.7188C111.154 37.7188 111.153 37.7188 111.153 37.7188C111.152 37.7188 111.151 37.7188 111.151 37.7188C111.15 37.7188 111.15 37.7188 111.149 37.7188C111.149 37.7188 111.148 37.7188 111.148 37.7188C111.147 37.7188 111.146 37.7188 111.146 37.7188C111.145 37.7188 111.145 37.7188 111.144 37.7188C111.144 37.7188 111.143 37.7188 111.143 37.7188C111.142 37.7188 111.141 37.7188 111.141 37.7188C111.14 37.7188 111.14 37.7188 111.139 37.7188C111.139 37.7188 111.138 37.7188 111.138 37.7188C111.137 37.7188 111.136 37.7188 111.136 37.7188C111.135 37.7188 111.135 37.7188 111.134 37.7188C111.134 37.7188 111.133 37.7188 111.133 37.7188C111.132 37.7188 111.131 37.7188 111.131 37.7188C111.13 37.7188 111.13 37.7188 111.129 37.7188C111.129 37.7188 111.128 37.7188 111.128 37.7188C111.127 37.7188 111.126 37.7188 111.126 37.7188C111.125 37.7188 111.125 37.7188 111.124 37.7188C111.124 37.7188 111.123 37.7188 111.123 37.7188C111.122 37.7188 111.121 37.7188 111.121 37.7188C111.12 37.7188 111.12 37.7188 111.119 37.7188C111.119 37.7188 111.118 37.7188 111.118 37.7188C111.117 37.7188 111.116 37.7188 111.116 37.7188C111.115 37.7188 111.115 37.7188 111.114 37.7188C111.114 37.7188 111.113 37.7188 111.112 37.7188C111.112 37.7188 111.111 37.7188 111.111 37.7188C111.11 37.7188 111.11 37.7188 111.109 37.7188C111.109 37.7188 111.108 37.7188 111.107 37.7188C111.107 37.7188 111.106 37.7188 111.106 37.7188C111.105 37.7188 111.105 37.7188 111.104 37.7188C111.104 37.7188 111.103 37.7188 111.102 37.7188C111.102 37.7188 111.101 37.7188 111.101 37.7188C111.1 37.7188 111.1 37.7188 111.099 37.7188C111.099 37.7188 111.098 37.7188 111.097 37.7188C111.097 37.7188 111.096 37.7188 111.096 37.7188C111.095 37.7188 111.095 37.7188 111.094 37.7188C111.094 37.7188 111.093 37.7188 111.093 37.7188C111.092 37.7188 111.091 37.7188 111.091 37.7188C111.09 37.7188 111.09 37.7188 111.089 37.7188C111.089 37.7188 111.088 37.7188 111.088 37.7188C111.087 37.7188 111.086 37.7188 111.086 37.7188C111.085 37.7188 111.085 37.7188 111.084 37.7188C111.084 37.7188 111.083 37.7188 111.083 37.7188C111.082 37.7188 111.081 37.7188 111.081 37.7188C111.08 37.7188 111.08 37.7188 111.079 37.7188C111.079 37.7188 111.078 37.7188 111.078 37.7188C111.077 37.7188 111.076 37.7188 111.076 37.7188C111.075 37.7188 111.075 37.7188 111.074 37.7188C111.074 37.7188 111.073 37.7188 111.073 37.7188C111.072 37.7188 111.071 37.7188 111.071 37.7188C111.07 37.7188 111.07 37.7188 111.069 37.7188C111.069 37.7188 111.068 37.7188 111.068 37.7188C111.067 37.7188 111.066 37.7188 111.066 37.7188C111.065 37.7188 111.065 37.7188 111.064 37.7188C111.064 37.7188 111.063 37.7188 111.063 37.7188C111.062 37.7188 111.061 37.7188 111.061 37.7188C111.06 37.7188 111.06 37.7188 111.059 37.7188C111.059 37.7188 111.058 37.7188 111.058 37.7188C111.057 37.7188 111.056 37.7188 111.056 37.7188C111.055 37.7188 111.055 37.7188 111.054 37.7188C111.054 37.7188 111.053 37.7188 111.053 37.7188C111.052 37.7188 111.052 37.7188 111.051 37.7188C111.05 37.7188 111.05 37.7188 111.049 37.7188C111.049 37.7188 111.048 37.7188 111.048 37.7188C111.047 37.7188 111.047 37.7188 111.046 37.7188C111.045 37.7188 111.045 37.7188 111.044 37.7188C111.044 37.7188 111.043 37.7188 111.043 37.7188C111.042 37.7188 111.042 37.7188 111.041 37.7188C111.04 37.7188 111.04 37.7188 111.039 37.7188C111.039 37.7188 111.038 37.7188 111.038 37.7188C111.037 37.7188 111.037 37.7188 111.036 37.7188C111.035 37.7188 111.035 37.7188 111.034 37.7188C111.034 37.7188 111.033 37.7188 111.033 37.7188C111.032 37.7188 111.032 37.7188 111.031 37.7188C111.031 37.7188 111.03 37.7188 111.029 37.7188C111.029 37.7188 111.028 37.7188 111.028 37.7188C111.027 37.7188 111.027 37.7188 111.026 37.7188C111.026 37.7188 111.025 37.7188 111.024 37.7188C111.024 37.7188 111.023 37.7188 111.023 37.7188C111.022 37.7188 111.022 37.7188 111.021 37.7188C111.021 37.7188 111.02 37.7188 111.019 37.7188C111.019 37.7188 111.018 37.7188 111.018 37.7188C111.017 37.7188 111.017 37.7188 111.016 37.7188C111.016 37.7188 111.015 37.7188 111.015 37.7188C111.014 37.7188 111.013 37.7188 111.013 37.7188C111.012 37.7188 111.012 37.7188 111.011 37.7188C111.011 37.7188 111.01 37.7188 111.01 37.7188C111.009 37.7188 111.008 37.7188 111.008 37.7188C111.007 37.7188 111.007 37.7188 111.006 37.7188C111.006 37.7188 111.005 37.7188 111.005 37.7188C111.004 37.7188 111.004 37.7188 111.003 37.7188C111.002 37.7188 111.002 37.7188 111.001 37.7188C111.001 37.7188 111 37.7188 111 37.7188C110.999 37.7188 110.999 37.7188 110.998 37.7188C110.997 37.7188 110.997 37.7188 110.996 37.7188C110.996 37.7188 110.995 37.7188 110.995 37.7188C110.994 37.7188 110.994 37.7188 110.993 37.7188C110.993 37.7188 110.992 37.7188 110.991 37.7188C110.991 37.7188 110.99 37.7188 110.99 37.7188C110.989 37.7188 110.989 37.7188 110.988 37.7188C110.988 37.7188 110.987 37.7188 110.986 37.7188C110.986 37.7188 110.985 37.7188 110.985 37.7188C110.984 37.7188 110.984 37.7188 110.983 37.7188C110.983 37.7188 110.982 37.7188 110.982 37.7188C110.981 37.7188 110.98 37.7188 110.98 37.7188C110.979 37.7188 110.979 37.7188 110.978 37.7188C110.978 37.7188 110.977 37.7188 110.977 37.7188C110.976 37.7188 110.975 37.7188 110.975 37.7188C110.974 37.7188 110.974 37.7188 110.973 37.7188C110.973 37.7188 110.972 37.7188 110.972 37.7188C110.971 37.7188 110.971 37.7188 110.97 37.7188C110.969 37.7188 110.969 37.7188 110.968 37.7188C110.968 37.7188 110.967 37.7188 110.967 37.7188C110.966 37.7188 110.966 37.7188 110.965 37.7188C110.964 37.7188 110.964 37.7188 110.963 37.7188C110.963 37.7188 110.962 37.7188 110.962 37.7188C110.961 37.7188 110.961 37.7188 110.96 37.7188C110.96 37.7188 110.959 37.7188 110.958 37.7188C110.958 37.7188 110.957 37.7188 110.957 37.7188C110.956 37.7188 110.956 37.7188 110.955 37.7188C110.955 37.7188 110.954 37.7188 110.954 37.7188C110.953 37.7188 110.952 37.7188 110.952 37.7188C110.951 37.7188 110.951 37.7188 110.95 37.7188C110.95 37.7188 110.949 37.7188 110.949 37.7188C110.948 37.7188 110.947 37.7188 110.947 37.7188C110.946 37.7188 110.946 37.7188 110.945 37.7188C110.945 37.7188 110.944 37.7188 110.944 37.7188C110.943 37.7188 110.943 37.7188 110.942 37.7188C110.941 37.7188 110.941 37.7188 110.94 37.7188C110.94 37.7188 110.939 37.7188 110.939 37.7188C110.938 37.7188 110.938 37.7188 110.937 37.7188C110.937 37.7188 110.936 37.7188 110.935 37.7188C110.935 37.7188 110.934 37.7188 110.934 37.7188C110.933 37.7188 110.933 37.7188 110.932 37.7188C110.932 37.7188 110.931 37.7188 110.931 37.7188C110.93 37.7188 110.929 37.7188 110.929 37.7188C110.928 37.7188 110.928 37.7188 110.927 37.7188C110.927 37.7188 110.926 37.7188 110.926 37.7188C110.925 37.7188 110.924 37.7188 110.924 37.7188C110.923 37.7188 110.923 37.7188 110.922 37.7188C110.922 37.7188 110.921 37.7188 110.921 37.7188C110.92 37.7188 110.92 37.7188 110.919 37.7188C110.918 37.7188 110.918 37.7188 110.917 37.7188C110.917 37.7188 110.916 37.7188 110.916 37.7188C110.915 37.7188 110.915 37.7188 110.914 37.7188C110.914 37.7188 110.913 37.7188 110.912 37.7188C110.912 37.7188 110.911 37.7188 110.911 37.7188C110.91 37.7188 110.91 37.7188 110.909 37.7188C110.909 37.7188 110.908 37.7188 110.908 37.7188C110.907 37.7188 110.906 37.7188 110.906 37.7188C110.905 37.7188 110.905 37.7188 110.904 37.7188C110.904 37.7188 110.903 37.7188 110.903 37.7188C110.902 37.7188 110.902 37.7188 110.901 37.7188C110.9 37.7188 110.9 37.7188 110.899 37.7188C110.899 37.7188 110.898 37.7188 110.898 37.7188C110.897 37.7188 110.897 37.7188 110.896 37.7188C110.896 37.7188 110.895 37.7188 110.894 37.7188C110.894 37.7188 110.893 37.7188 110.893 37.7188C110.892 37.7188 110.892 37.7188 110.891 37.7188C110.891 37.7188 110.89 37.7188 110.89 37.7188C110.889 37.7188 110.888 37.7188 110.888 37.7188C110.887 37.7188 110.887 37.7188 110.886 37.7188C110.886 37.7188 110.885 37.7188 110.885 37.7188C110.884 37.7188 110.884 37.7188 110.883 37.7188C110.882 37.7188 110.882 37.7188 110.881 37.7188C110.881 37.7188 110.88 37.7188 110.88 37.7188C110.879 37.7188 110.879 37.7188 110.878 37.7188C110.878 37.7188 110.877 37.7188 110.876 37.7188C110.876 37.7188 110.875 37.7188 110.875 37.7188C110.874 37.7188 110.874 37.7188 110.873 37.7188C110.873 37.7188 110.872 37.7188 110.872 37.7188C110.871 37.7188 110.87 37.7188 110.87 37.7188C110.869 37.7188 110.869 37.7188 110.868 37.7188C110.868 37.7188 110.867 37.7188 110.867 37.7188C110.866 37.7188 110.866 37.7188 110.865 37.7188C110.865 37.7188 110.864 37.7188 110.863 37.7188C110.863 37.7188 110.862 37.7188 110.862 37.7188C110.861 37.7188 110.861 37.7188 110.86 37.7188C110.86 37.7188 110.859 37.7188 110.859 37.7188C110.858 37.7188 110.857 37.7188 110.857 37.7188C110.856 37.7188 110.856 37.7188 110.855 37.7188C110.855 37.7188 110.854 37.7188 110.854 37.7188C110.853 37.7188 110.853 37.7188 110.852 37.7188C110.851 37.7188 110.851 37.7188 110.85 37.7188C110.85 37.7188 110.849 37.7188 110.849 37.7188C110.848 37.7188 110.848 37.7188 110.847 37.7188C110.847 37.7188 110.846 37.7188 110.845 37.7188C110.845 37.7188 110.844 37.7188 110.844 37.7188C110.843 37.7188 110.843 37.7188 110.842 37.7188C110.842 37.7188 110.841 37.7188 110.841 37.7188C110.84 37.7188 110.84 37.7188 110.839 37.7188C110.838 37.7188 110.838 37.7188 110.837 37.7188C110.837 37.7188 110.836 37.7188 110.836 37.7188C110.835 37.7188 110.835 37.7188 110.834 37.7188C110.834 37.7188 110.833 37.7188 110.832 37.7188C110.832 37.7188 110.831 37.7188 110.831 37.7188C110.83 37.7188 110.83 37.7188 110.829 37.7188C110.829 37.7188 110.828 37.7188 110.828 37.7188C110.827 37.7188 110.826 37.7188 110.826 37.7188C110.825 37.7188 110.825 37.7188 110.824 37.7188C110.824 37.7188 110.823 37.7188 110.823 37.7188C110.822 37.7188 110.822 37.7188 110.821 37.7188C110.821 37.7188 110.82 37.7188 110.819 37.7188C110.819 37.7188 110.818 37.7188 110.818 37.7188C110.817 37.7188 110.817 37.7188 110.816 37.7188C110.816 37.7188 110.815 37.7188 110.815 37.7188C110.814 37.7188 110.813 37.7188 110.813 37.7188C110.812 37.7188 110.812 37.7188 110.811 37.7188C110.811 37.7188 110.81 37.7188 110.81 37.7188C110.809 37.7188 110.809 37.7188 110.808 37.7188C110.808 37.7188 110.807 37.7188 110.806 37.7188C110.806 37.7188 110.805 37.7188 110.805 37.7188C110.804 37.7188 110.804 37.7188 110.803 37.7188C110.803 37.7188 110.802 37.7188 110.802 37.7188C110.801 37.7188 110.801 37.7188 110.8 37.7188C110.799 37.7188 110.799 37.7188 110.798 37.7188C110.798 37.7188 110.797 37.7188 110.797 37.7188C110.796 37.7188 110.796 37.7188 110.795 37.7188C110.795 37.7188 110.794 37.7188 110.793 37.7188C110.793 37.7188 110.792 37.7188 110.792 37.7188C110.791 37.7188 110.791 37.7188 110.79 37.7188C110.79 37.7188 110.789 37.7188 110.789 37.7188C110.788 37.7188 110.788 37.7188 110.787 37.7188C110.786 37.7188 110.786 37.7188 110.785 37.7188C110.785 37.7188 110.784 37.7188 110.784 37.7188C110.783 37.7188 110.783 37.7188 110.782 37.7188C110.782 37.7188 110.781 37.7188 110.781 37.7188C110.78 37.7188 110.779 37.7188 110.779 37.7188C110.778 37.7188 110.778 37.7188 110.777 37.7188C110.777 37.7188 110.776 37.7188 110.776 37.7188C110.775 37.7188 110.775 37.7188 110.774 37.7188C110.774 37.7188 110.773 37.7188 110.772 37.7188C110.772 37.7188 110.771 37.7188 110.771 37.7188C110.77 37.7188 110.77 37.7188 110.769 37.7188C110.769 37.7188 110.768 37.7188 110.768 37.7188C110.767 37.7188 110.767 37.7188 110.766 37.7188C110.765 37.7188 110.765 37.7188 110.764 37.7188C110.764 37.7188 110.763 37.7188 110.763 37.7188C110.762 37.7188 110.762 37.7188 110.761 37.7188C110.761 37.7188 110.76 37.7188 110.759 37.7188C110.759 37.7188 110.758 37.7188 110.758 37.7188C110.757 37.7188 110.757 37.7188 110.756 37.7188C110.756 37.7188 110.755 37.7188 110.755 37.7188C110.754 37.7188 110.754 37.7188 110.753 37.7188C110.752 37.7188 110.752 37.7188 110.751 37.7188C110.751 37.7188 110.75 37.7188 110.75 37.7188C110.749 37.7188 110.749 37.7188 110.748 37.7188C110.748 37.7188 110.747 37.7188 110.747 37.7188C110.746 37.7188 110.745 37.7188 110.745 37.7188C110.744 37.7188 110.744 37.7188 110.743 37.7188C110.743 37.7188 110.742 37.7188 110.742 37.7188C110.741 37.7188 110.741 37.7188 110.74 37.7188C110.74 37.7188 110.739 37.7188 110.739 37.7188C110.738 37.7188 110.737 37.7188 110.737 37.7188C110.736 37.7188 110.736 37.7188 110.735 37.7188C110.735 37.7188 110.734 37.7188 110.734 37.7188C110.733 37.7188 110.733 37.7188 110.732 37.7188C110.732 37.7188 110.731 37.7188 110.73 37.7188C110.73 37.7188 110.729 37.7188 110.729 37.7188C110.728 37.7188 110.728 37.7188 110.727 37.7188C110.727 37.7188 110.726 37.7188 110.726 37.7188C110.725 37.7188 110.725 37.7188 110.724 37.7188C110.723 37.7188 110.723 37.7188 110.722 37.7188C110.722 37.7188 110.721 37.7188 110.721 37.7188C110.72 37.7188 110.72 37.7188 110.719 37.7188C110.719 37.7188 110.718 37.7188 110.718 37.7188C110.717 37.7188 110.716 37.7188 110.716 37.7188C110.715 37.7188 110.715 37.7188 110.714 37.7188C110.714 37.7188 110.713 37.7188 110.713 37.7188C110.712 37.7188 110.712 37.7188 110.711 37.7188C110.711 37.7188 110.71 37.7188 110.71 37.7188C110.709 37.7188 110.708 37.7188 110.708 37.7188C110.707 37.7188 110.707 37.7188 110.706 37.7188C110.706 37.7188 110.705 37.7188 110.705 37.7188C110.704 37.7188 110.704 37.7188 110.703 37.7188C110.703 37.7188 110.702 37.7188 110.701 37.7188C110.701 37.7188 110.7 37.7188 110.7 37.7188C110.699 37.7188 110.699 37.7188 110.698 37.7188C110.698 37.7188 110.697 37.7188 110.697 37.7188C110.696 37.7188 110.696 37.7188 110.695 37.7188C110.694 37.7188 110.694 37.7188 110.693 37.7188C110.693 37.7188 110.692 37.7188 110.692 37.7188C110.691 37.7188 110.691 37.7188 110.69 37.7188C110.69 37.7188 110.689 37.7188 110.689 37.7188C110.688 37.7188 110.688 37.7188 110.687 37.7188C110.686 37.7188 110.686 37.7188 110.685 37.7188C110.685 37.7188 110.684 37.7188 110.684 37.7188C110.683 37.7188 110.683 37.7188 110.682 37.7188C110.682 37.7188 110.681 37.7188 110.681 37.7188C110.68 37.7188 110.68 37.7188 110.679 37.7188C110.678 37.7188 110.678 37.7188 110.677 37.7188C110.677 37.7188 110.676 37.7188 110.676 37.7188C110.675 37.7188 110.675 37.7188 110.674 37.7188C110.674 37.7188 110.673 37.7188 110.673 37.7188C110.672 37.7188 110.671 37.7188 110.671 37.7188C110.67 37.7188 110.67 37.7188 110.669 37.7188C110.669 37.7188 110.668 37.7188 110.668 37.7188C110.667 37.7188 110.667 37.7188 110.666 37.7188C110.666 37.7188 110.665 37.7188 110.665 37.7188C110.664 37.7188 110.663 37.7188 110.663 37.7188C110.662 37.7188 110.662 37.7188 110.661 37.7188C110.661 37.7188 110.66 37.7188 110.66 37.7188C110.659 37.7188 110.659 37.7188 110.658 37.7188C110.658 37.7188 110.657 37.7188 110.657 37.7188C110.656 37.7188 110.655 37.7188 110.655 37.7188C110.654 37.7188 110.654 37.7188 110.653 37.7188C110.653 37.7188 110.652 37.7188 110.652 37.7188C110.651 37.7188 110.651 37.7188 110.65 37.7188C110.65 37.7188 110.649 37.7188 110.649 37.7188C110.648 37.7188 110.647 37.7188 110.647 37.7188C110.646 37.7188 110.646 37.7188 110.645 37.7188C110.645 37.7188 110.644 37.7188 110.644 37.7188C110.643 37.7188 110.643 37.7188 110.642 37.7188C110.642 37.7188 110.641 37.7188 110.641 37.7188C110.64 37.7188 110.639 37.7188 110.639 37.7188C110.638 37.7188 110.638 37.7188 110.637 37.7188C110.637 37.7188 110.636 37.7188 110.636 37.7188C110.635 37.7188 110.635 37.7188 110.634 37.7188C110.634 37.7188 110.633 37.7188 110.633 37.7188C110.632 37.7188 110.631 37.7188 110.631 37.7188C110.63 37.7188 110.63 37.7188 110.629 37.7188C110.629 37.7188 110.628 37.7188 110.628 37.7188C110.627 37.7188 110.627 37.7188 110.626 37.7188C110.626 37.7188 110.625 37.7188 110.625 37.7188C110.624 37.7188 110.624 37.7188 110.623 37.7188C110.622 37.7188 110.622 37.7188 110.621 37.7188C110.621 37.7188 110.62 37.7188 110.62 37.7188C110.619 37.7188 110.619 37.7188 110.618 37.7188C110.618 37.7188 110.617 37.7188 110.617 37.7188C110.616 37.7188 110.616 37.7188 110.615 37.7188C110.614 37.7188 110.614 37.7188 110.613 37.7188C110.613 37.7188 110.612 37.7188 110.612 37.7188C110.611 37.7188 110.611 37.7188 110.61 37.7188C110.61 37.7188 110.609 37.7188 110.609 37.7188C110.608 37.7188 110.608 37.7188 110.607 37.7188C110.606 37.7188 110.606 37.7188 110.605 37.7188C110.605 37.7188 110.604 37.7188 110.604 37.7188C110.603 37.7188 110.603 37.7188 110.602 37.7188C110.602 37.7188 110.601 37.7188 110.601 37.7188C110.6 37.7188 110.6 37.7188 110.599 37.7188C110.599 37.7188 110.598 37.7188 110.597 37.7188C110.597 37.7188 110.596 37.7188 110.596 37.7188C110.595 37.7188 110.595 37.7188 110.594 37.7188C110.594 37.7188 110.593 37.7188 110.593 37.7188C110.592 37.7188 110.592 37.7188 110.591 37.7188C110.591 37.7188 110.59 37.7188 110.59 37.7188C110.589 37.7188 110.588 37.7188 110.588 37.7188C110.587 37.7188 110.587 37.7188 110.586 37.7188C110.586 37.7188 110.585 37.7188 110.585 37.7188C110.584 37.7188 110.584 37.7188 110.583 37.7188C110.583 37.7188 110.582 37.7188 110.582 37.7188C110.581 37.7188 110.58 37.7188 110.58 37.7188C110.579 37.7188 110.579 37.7188 110.578 37.7188C110.578 37.7188 110.577 37.7188 110.577 37.7188C110.576 37.7188 110.576 37.7188 110.575 37.7188C110.575 37.7188 110.574 37.7188 110.574 37.7188C110.573 37.7188 110.573 37.7188 110.572 37.7188C110.571 37.7188 110.571 37.7188 110.57 37.7188C110.57 37.7188 110.569 37.7188 110.569 37.7188C110.568 37.7188 110.568 37.7188 110.567 37.7188C110.567 37.7188 110.566 37.7188 110.566 37.7188C110.565 37.7188 110.565 37.7188 110.564 37.7188C110.564 37.7188 110.563 37.7188 110.562 37.7188V43.7188ZM111.606 43.7121C111.923 43.691 112.23 43.6698 112.526 43.6486L112.099 37.6639C111.812 37.6843 111.515 37.7049 111.207 37.7254L111.606 43.7121ZM119.312 16.625L116.952 14.773L116.945 14.7825L116.938 14.7921L119.312 16.625ZM145.781 42.2812L142.782 42.3623L142.783 42.402L142.786 42.4417L145.781 42.2812ZM147.625 45.6875H150.625V43.7728L148.888 42.9665L147.625 45.6875ZM147.625 47V50H150.625V47H147.625ZM137.938 47L135.146 48.0996L135.895 50H137.938V47ZM137.125 43L140.115 42.7576L139.562 35.9308L134.919 40.9666L137.125 43ZM132.875 46.4062L134.373 49.0057L134.381 49.0011L134.389 48.9964L132.875 46.4062ZM118.719 45.4375L116.73 47.6836L116.742 47.6945L116.755 47.7053L118.719 45.4375ZM120.562 28.8438L119.064 26.2447L119.056 26.2494L120.562 28.8438ZM128.375 26.6562L128.007 23.6789L127.996 23.6803L128.375 26.6562ZM131.406 26.2812L131.775 29.2586L131.783 29.2575L131.406 26.2812ZM134.938 25.5L133.761 22.7402L133.744 22.7476L133.727 22.7552L134.938 25.5ZM135.375 20.0938L133.899 22.7054L133.932 22.7243L133.966 22.7424L135.375 20.0938ZM126.656 20.8438L124.359 18.9142L124.342 18.9341L124.326 18.9543L126.656 20.8438ZM125.406 23.9688V26.9688H127.968L128.369 24.4391L125.406 23.9688ZM116.812 23.9688L113.818 23.7803L113.618 26.9688H116.812V23.9688ZM125.938 40.5625L127.847 38.2484L127.815 38.2225L127.783 38.1976L125.938 40.5625ZM134.281 39.9062L132.574 37.4397L132.566 37.4448L132.559 37.4501L134.281 39.9062ZM136.812 33.75L139.812 33.8129L139.812 33.7815V33.75H136.812ZM136.812 30.4375H139.812V25.0035L135.214 27.8988L136.812 30.4375ZM135.094 31.3125L136.136 34.1257L136.163 34.1155L136.191 34.1048L135.094 31.3125ZM130.75 32.2812L131.275 35.2349L131.289 35.2325L131.303 35.2299L130.75 32.2812ZM126.719 33.5L125.195 30.9159L125.193 30.9172L126.719 33.5ZM121.673 18.477C123.218 16.5078 126.154 15.125 131.438 15.125V9.125C125.263 9.125 120.115 10.7422 116.952 14.773L121.673 18.477ZM131.438 15.125C134.762 15.125 137.595 15.7818 140.01 17.0154L142.74 11.6721C139.363 9.94737 135.571 9.125 131.438 9.125V15.125ZM140.01 17.0154C141.624 17.8397 142.719 19.3906 142.719 22.7188H148.719C148.719 17.8386 146.918 13.8061 142.74 11.6721L140.01 17.0154ZM142.719 22.7188V38.3438H148.719V22.7188H142.719ZM142.719 38.3438C142.719 39.4627 142.74 40.8039 142.782 42.3623L148.78 42.2002C148.739 40.6753 148.719 39.3914 148.719 38.3438H142.719ZM142.786 42.4417C142.822 43.1257 142.896 43.7928 143.033 44.4049C143.162 44.9822 143.39 45.7132 143.855 46.3766L148.77 42.9359C148.867 43.0743 148.906 43.1729 148.912 43.1884C148.919 43.207 148.908 43.1813 148.889 43.0951C148.848 42.9156 148.803 42.6035 148.777 42.1208L142.786 42.4417ZM143.855 46.3766C144.52 47.3265 145.424 47.9731 146.362 48.4085L148.888 42.9665C148.775 42.9138 148.724 42.8763 148.713 42.8676C148.704 42.8608 148.732 42.8813 148.77 42.9359L143.855 46.3766ZM144.625 45.6875V47H150.625V45.6875H144.625ZM147.625 44H137.938V50H147.625V44ZM140.729 45.9004C140.518 45.366 140.395 44.9191 140.331 44.5528L134.419 45.5722C134.564 46.4142 134.815 47.259 135.146 48.0996L140.729 45.9004ZM140.331 44.5528C140.246 44.0565 140.172 43.4608 140.115 42.7576L134.135 43.2424C134.203 44.0809 134.296 44.8602 134.419 45.5722L140.331 44.5528ZM134.919 40.9666C133.897 42.0757 132.715 43.0251 131.361 43.8161L134.389 48.9964C136.243 47.9124 137.895 46.591 139.331 45.0334L134.919 40.9666ZM131.377 43.8068C129.958 44.6246 128.316 45.0625 126.375 45.0625V51.0625C129.267 51.0625 131.959 50.3962 134.373 49.0057L131.377 43.8068ZM126.375 45.0625C123.896 45.0625 122.076 44.3759 120.683 43.1697L116.755 47.7053C119.404 49.9991 122.688 51.0625 126.375 51.0625V45.0625ZM120.707 43.1914C119.484 42.1078 118.719 40.5031 118.719 37.9375H112.719C112.719 41.8302 113.954 45.2255 116.73 47.6836L120.707 43.1914ZM118.719 37.9375C118.719 34.6628 119.892 32.7021 122.069 31.4381L119.056 26.2494C114.775 28.7354 112.719 32.8372 112.719 37.9375H118.719ZM122.061 31.4428C123.328 30.7124 125.474 30.0496 128.754 29.6322L127.996 23.6803C124.401 24.1379 121.339 24.9334 119.064 26.2447L122.061 31.4428ZM128.743 29.6336L131.775 29.2586L131.038 23.3039L128.007 23.6789L128.743 29.6336ZM131.783 29.2575C133.466 29.0445 135.014 28.745 136.148 28.2448L133.727 22.7552C133.444 22.88 132.638 23.1013 131.03 23.305L131.783 29.2575ZM136.114 28.2598C137.088 27.8446 138.047 27.2173 138.764 26.2657C139.507 25.2788 139.844 24.1343 139.844 22.9688H133.844C133.844 22.9754 133.843 22.9324 133.867 22.8588C133.891 22.7826 133.929 22.7114 133.971 22.6562C134.052 22.5484 134.058 22.6137 133.761 22.7402L136.114 28.2598ZM139.844 22.9688C139.844 20.8023 139.009 18.6286 136.784 17.4451L133.966 22.7424C133.963 22.7404 133.93 22.7219 133.889 22.6802C133.847 22.6379 133.819 22.5955 133.805 22.5679C133.779 22.518 133.844 22.6091 133.844 22.9688H139.844ZM136.851 17.4821C135.229 16.565 133.198 16.2812 131.125 16.2812V22.2812C132.802 22.2812 133.605 22.5392 133.899 22.7054L136.851 17.4821ZM131.125 16.2812C128.621 16.2812 126.056 16.8936 124.359 18.9142L128.953 22.7733C129.006 22.7106 129.421 22.2812 131.125 22.2812V16.2812ZM124.326 18.9543C123.275 20.2503 122.707 21.8359 122.443 23.4984L128.369 24.4391C128.522 23.4766 128.787 22.9788 128.987 22.7332L124.326 18.9543ZM125.406 20.9688H116.812V26.9688H125.406V20.9688ZM119.807 24.1572C119.965 21.6354 120.652 19.8002 121.687 18.4579L116.938 14.7921C115.015 17.2831 114.035 20.3438 113.818 23.7803L119.807 24.1572ZM124.028 42.8766C125.463 44.0603 127.183 44.5938 129 44.5938V38.5938C128.401 38.5938 128.079 38.4397 127.847 38.2484L124.028 42.8766ZM129 44.5938C131.548 44.5938 133.907 43.833 136.004 42.3624L132.559 37.4501C131.447 38.2295 130.286 38.5938 129 38.5938V44.5938ZM135.989 42.3728C138.746 40.4638 139.74 37.2457 139.812 33.8129L133.813 33.6871C133.76 36.2126 133.066 37.0987 132.574 37.4397L135.989 42.3728ZM139.812 33.75V30.4375H133.812V33.75H139.812ZM135.214 27.8988C134.801 28.159 134.395 28.3637 133.997 28.5202L136.191 34.1048C136.959 33.8029 137.699 33.4244 138.411 32.9762L135.214 27.8988ZM134.052 28.4993C133.72 28.6221 133.128 28.7831 132.197 28.9576L133.303 34.8549C134.372 34.6544 135.342 34.4195 136.136 34.1257L134.052 28.4993ZM132.197 28.9576L130.197 29.3326L131.303 35.2299L133.303 34.8549L132.197 28.9576ZM130.225 29.3276C128.282 29.673 126.492 30.1506 125.195 30.9159L128.243 36.0841C128.57 35.891 129.468 35.5562 131.275 35.2349L130.225 29.3276ZM125.193 30.9172C122.829 32.3137 121.656 34.6018 121.656 37.2812H127.656C127.656 36.544 127.858 36.3113 128.245 36.0828L125.193 30.9172ZM121.656 37.2812C121.656 39.3321 122.247 41.4874 124.092 42.9274L127.783 38.1976C127.816 38.2234 127.806 38.2392 127.771 38.151C127.727 38.0378 127.656 37.7732 127.656 37.2812H121.656ZM163.281 52.9688L165.221 50.6805L165.199 50.6615L165.176 50.643L163.281 52.9688ZM174.562 50.9688L171.896 49.5949L171.89 49.6058L171.884 49.6167L174.562 50.9688ZM175.625 41.8438H178.625V30.7859L173.036 40.3275L175.625 41.8438ZM172.875 45.125L171.083 42.7189L171.068 42.7303L171.053 42.7419L172.875 45.125ZM155.469 42.5625L153.177 44.4982L153.184 44.5066L153.191 44.5149L155.469 42.5625ZM155.344 17.3125L157.763 19.0866L157.768 19.0796L155.344 17.3125ZM170.531 12.9062L171.678 10.1339L171.669 10.1303L170.531 12.9062ZM175.781 17.8438L173.16 19.3026L178.781 29.4036V17.8438H175.781ZM175.781 12.9375V9.9375H172.781V12.9375H175.781ZM184.438 12.9375H187.438V9.9375H184.438V12.9375ZM182.219 55.1875L179.719 53.5288L179.718 53.5297L182.219 55.1875ZM152.375 50.7188V47.7188H149.106L149.386 50.9755L152.375 50.7188ZM162.062 50.7188L164.98 50.0186L164.428 47.7188H162.062V50.7188ZM161.781 35.375L164.547 34.2126L164.541 34.1984L164.535 34.1843L161.781 35.375ZM173.562 37.3438L175.77 39.3749L175.777 39.3676L175.784 39.3603L173.562 37.3438ZM173.656 22.4375L171.316 24.3151L171.323 24.3238L171.331 24.3325L173.656 22.4375ZM161.719 24.3125L158.937 23.1881L158.933 23.1983L161.719 24.3125ZM161.341 55.257C163.134 56.7767 165.655 57.1875 168.125 57.1875V51.1875C166.054 51.1875 165.346 50.7858 165.221 50.6805L161.341 55.257ZM168.125 57.1875C172.023 57.1875 175.474 55.8193 177.241 52.3208L171.884 49.6167C171.484 50.4098 170.643 51.1875 168.125 51.1875V57.1875ZM177.229 52.3426C178.29 50.2845 178.625 47.3436 178.625 44.0312H172.625C172.625 47.2189 172.252 48.903 171.896 49.5949L177.229 52.3426ZM178.625 44.0312V41.8438H172.625V44.0312H178.625ZM173.036 40.3275C172.312 41.5634 171.641 42.3033 171.083 42.7189L174.667 47.5311C176.067 46.4884 177.229 45.0408 178.214 43.36L173.036 40.3275ZM171.053 42.7419C169.932 43.5986 168.324 44.1562 165.969 44.1562V50.1562C169.28 50.1562 172.276 49.3597 174.697 47.5081L171.053 42.7419ZM165.969 44.1562C162.386 44.1562 159.749 42.9465 157.747 40.6101L153.191 44.5149C156.438 48.3035 160.802 50.1562 165.969 50.1562V44.1562ZM157.761 40.6268C155.736 38.2301 154.562 34.8206 154.562 30.0625H148.562C148.562 35.8044 149.993 40.7283 153.177 44.4982L157.761 40.6268ZM154.562 30.0625C154.562 25.5149 155.686 21.9184 157.763 19.0866L152.925 15.5384C149.96 19.5816 148.562 24.4851 148.562 30.0625H154.562ZM157.768 19.0796C159.673 16.4661 162.306 15.125 166.062 15.125V9.125C160.569 9.125 156.056 11.2422 152.919 15.5454L157.768 19.0796ZM166.062 15.125C167.473 15.125 168.56 15.3406 169.394 15.6822L171.669 10.1303C169.961 9.43024 168.069 9.125 166.062 9.125V15.125ZM169.385 15.6786C170.823 16.2733 172.098 17.3939 173.16 19.3026L178.403 16.3849C176.798 13.502 174.572 11.3308 171.678 10.1339L169.385 15.6786ZM178.781 17.8438V12.9375H172.781V17.8438H178.781ZM175.781 15.9375H184.438V9.9375H175.781V15.9375ZM181.438 12.9375V45.25H187.438V12.9375H181.438ZM181.438 45.25C181.438 49.3987 180.723 52.0151 179.719 53.5288L184.718 56.8462C186.672 53.9015 187.438 49.893 187.438 45.25H181.438ZM179.718 53.5297C177.995 56.1282 174.39 57.9375 167.594 57.9375V63.9375C175.214 63.9375 181.359 61.9135 184.719 56.8453L179.718 53.5297ZM167.594 57.9375C163.612 57.9375 160.658 57.1545 158.521 55.8267L155.354 60.9233C158.717 63.0122 162.867 63.9375 167.594 63.9375V57.9375ZM158.521 55.8267C156.623 54.6477 155.58 52.9732 155.364 50.462L149.386 50.9755C149.754 55.256 151.752 58.6856 155.354 60.9233L158.521 55.8267ZM152.375 53.7188H162.062V47.7188H152.375V53.7188ZM159.145 51.4189C159.479 52.8079 160.122 54.2646 161.386 55.2945L165.176 50.643C165.247 50.7009 165.241 50.7236 165.193 50.6337C165.141 50.5382 165.059 50.3471 164.98 50.0186L159.145 51.4189ZM159.016 36.5374C159.803 38.4098 160.987 40.0031 162.654 41.1092C164.321 42.2151 166.249 42.6875 168.281 42.6875V36.6875C167.188 36.6875 166.471 36.4412 165.971 36.1095C165.472 35.7782 164.968 35.2152 164.547 34.2126L159.016 36.5374ZM168.281 42.6875C171.222 42.6875 173.777 41.5415 175.77 39.3749L171.355 35.3126C170.473 36.271 169.507 36.6875 168.281 36.6875V42.6875ZM175.784 39.3603C177.951 36.9735 178.719 33.5667 178.719 29.8125H172.719C172.719 32.9333 172.049 34.5473 171.341 35.3272L175.784 39.3603ZM178.719 29.8125C178.719 26.2148 177.96 22.9706 175.982 20.5425L171.331 24.3325C172.102 25.2794 172.719 26.9519 172.719 29.8125H178.719ZM175.996 20.5599C174.035 18.1158 171.327 16.9062 168.188 16.9062V22.9062C169.631 22.9062 170.569 23.3842 171.316 24.3151L175.996 20.5599ZM168.188 16.9062C166.144 16.9062 164.205 17.3924 162.538 18.5284C160.873 19.6623 159.705 21.2889 158.937 23.1881L164.5 25.4369C164.92 24.3986 165.424 23.8221 165.915 23.4873C166.404 23.1544 167.106 22.9062 168.188 22.9062V16.9062ZM158.933 23.1983C158.125 25.2182 157.781 27.5497 157.781 30.0938H163.781C163.781 28.0544 164.062 26.5318 164.504 25.4267L158.933 23.1983ZM157.781 30.0938C157.781 32.4105 158.172 34.5872 159.028 36.5657L164.535 34.1843C164.057 33.0794 163.781 31.7354 163.781 30.0938H157.781ZM202.688 24.6562L200.033 23.258L200.03 23.2642L202.688 24.6562ZM201.656 47V50H204.656V47H201.656ZM192.688 47H189.688V50H192.688V47ZM192.688 12.9375V9.9375H189.688V12.9375H192.688ZM201.188 12.9375H204.188V9.9375H201.188V12.9375ZM201.188 18.875H198.188V29.6216L203.754 20.4289L201.188 18.875ZM204.781 14.2188L206.678 16.5427L206.693 16.5308L206.707 16.5187L204.781 14.2188ZM211.688 12.1562L211.099 15.098L211.39 15.1562H211.688V12.1562ZM212.469 12.1875H215.469V9.34124L212.626 9.19165L212.469 12.1875ZM212.469 21.3125L212.137 24.2942L215.469 24.6643V21.3125H212.469ZM209.906 18.1562C205.669 18.1562 201.965 19.5905 200.033 23.258L205.342 26.0545C205.868 25.0554 206.977 24.1562 209.906 24.1562V18.1562ZM200.03 23.2642C198.999 25.2323 198.656 27.8485 198.656 30.7188H204.656C204.656 28.1307 205.001 26.7052 205.345 26.0483L200.03 23.2642ZM198.656 30.7188V47H204.656V30.7188H198.656ZM201.656 44H192.688V50H201.656V44ZM195.688 47V12.9375H189.688V47H195.688ZM192.688 15.9375H201.188V9.9375H192.688V15.9375ZM198.188 12.9375V18.875H204.188V12.9375H198.188ZM203.754 20.4289C205.094 18.2159 206.075 17.0357 206.678 16.5427L202.884 11.8948C201.446 13.0685 200.031 14.9924 198.621 17.3211L203.754 20.4289ZM206.707 16.5187C207.72 15.671 209.154 15.125 211.281 15.125V9.125C208.076 9.125 205.176 9.97486 202.855 11.9188L206.707 16.5187ZM211.281 15.125C211.304 15.125 211.301 15.1258 211.278 15.124C211.256 15.1223 211.193 15.1167 211.099 15.098L212.276 9.21451C211.901 9.13956 211.548 9.125 211.281 9.125V15.125ZM211.688 15.1562C211.687 15.1562 211.733 15.1567 211.857 15.1617C211.97 15.1662 212.12 15.1733 212.311 15.1834L212.626 9.19165C212.247 9.17168 211.906 9.15625 211.688 9.15625V15.1562ZM209.469 12.1875V21.3125H215.469V12.1875H209.469ZM212.8 18.3308C212.192 18.2633 211.627 18.2154 211.111 18.1909L210.826 24.1841C211.186 24.2012 211.621 24.2367 212.137 24.2942L212.8 18.3308ZM211.111 18.1909C210.651 18.169 210.244 18.1562 209.906 18.1562V24.1562C210.11 24.1562 210.411 24.1643 210.826 24.1841L211.111 18.1909ZM219 16.625L216.64 14.773L216.632 14.7825L216.625 14.7921L219 16.625ZM245.469 42.2812L242.47 42.3623L242.471 42.402L242.473 42.4417L245.469 42.2812ZM247.312 45.6875H250.312V43.7728L248.576 42.9665L247.312 45.6875ZM247.312 47V50H250.312V47H247.312ZM237.625 47L234.834 48.0996L235.582 50H237.625V47ZM236.812 43L239.803 42.7576L239.249 35.9308L234.607 40.9666L236.812 43ZM232.562 46.4062L234.06 49.0057L234.068 49.0011L234.076 48.9964L232.562 46.4062ZM218.406 45.4375L216.418 47.6836L216.43 47.6945L216.442 47.7053L218.406 45.4375ZM220.25 28.8438L218.752 26.2447L218.744 26.2494L220.25 28.8438ZM228.062 26.6562L227.694 23.6789L227.684 23.6803L228.062 26.6562ZM231.094 26.2812L231.462 29.2586L231.47 29.2575L231.094 26.2812ZM234.625 25.5L233.449 22.7402L233.431 22.7476L233.414 22.7552L234.625 25.5ZM235.062 20.0938L233.586 22.7054L233.62 22.7243L233.654 22.7424L235.062 20.0938ZM226.344 20.8438L224.047 18.9142L224.03 18.9341L224.013 18.9543L226.344 20.8438ZM225.094 23.9688V26.9688H227.655L228.057 24.4391L225.094 23.9688ZM216.5 23.9688L213.506 23.7803L213.305 26.9688H216.5V23.9688ZM225.625 40.5625L227.534 38.2484L227.503 38.2225L227.471 38.1976L225.625 40.5625ZM233.969 39.9062L232.261 37.4397L232.254 37.4448L232.246 37.4501L233.969 39.9062ZM236.5 33.75L239.499 33.8129L239.5 33.7815V33.75H236.5ZM236.5 30.4375H239.5V25.0035L234.902 27.8988L236.5 30.4375ZM234.781 31.3125L235.823 34.1257L235.851 34.1155L235.878 34.1048L234.781 31.3125ZM230.438 32.2812L230.963 35.2349L230.977 35.2325L230.99 35.2299L230.438 32.2812ZM226.406 33.5L224.882 30.9159L224.88 30.9172L226.406 33.5ZM221.36 18.477C222.905 16.5078 225.841 15.125 231.125 15.125V9.125C224.95 9.125 219.803 10.7422 216.64 14.773L221.36 18.477ZM231.125 15.125C234.45 15.125 237.283 15.7818 239.698 17.0154L242.427 11.6721C239.051 9.94737 235.259 9.125 231.125 9.125V15.125ZM239.698 17.0154C241.312 17.8397 242.406 19.3906 242.406 22.7188H248.406C248.406 17.8386 246.605 13.8061 242.427 11.6721L239.698 17.0154ZM242.406 22.7188V38.3438H248.406V22.7188H242.406ZM242.406 38.3438C242.406 39.4627 242.428 40.8039 242.47 42.3623L248.468 42.2002C248.426 40.6753 248.406 39.3914 248.406 38.3438H242.406ZM242.473 42.4417C242.51 43.1257 242.584 43.7928 242.721 44.4049C242.85 44.9822 243.078 45.7132 243.542 46.3766L248.458 42.9359C248.555 43.0743 248.594 43.1729 248.6 43.1884C248.607 43.207 248.595 43.1813 248.576 43.0951C248.536 42.9156 248.49 42.6035 248.464 42.1208L242.473 42.4417ZM243.542 46.3766C244.207 47.3265 245.111 47.9731 246.049 48.4085L248.576 42.9665C248.462 42.9138 248.411 42.8763 248.4 42.8676C248.392 42.8608 248.42 42.8813 248.458 42.9359L243.542 46.3766ZM244.312 45.6875V47H250.312V45.6875H244.312ZM247.312 44H237.625V50H247.312V44ZM240.416 45.9004C240.206 45.366 240.082 44.9191 240.019 44.5528L234.106 45.5722C234.251 46.4142 234.503 47.259 234.834 48.0996L240.416 45.9004ZM240.019 44.5528C239.933 44.0565 239.86 43.4608 239.803 42.7576L233.822 43.2424C233.89 44.0809 233.983 44.8602 234.106 45.5722L240.019 44.5528ZM234.607 40.9666C233.584 42.0757 232.402 43.0251 231.049 43.8161L234.076 48.9964C235.931 47.9124 237.582 46.591 239.018 45.0334L234.607 40.9666ZM231.065 43.8068C229.645 44.6246 228.004 45.0625 226.062 45.0625V51.0625C228.955 51.0625 231.646 50.3962 234.06 49.0057L231.065 43.8068ZM226.062 45.0625C223.583 45.0625 221.763 44.3759 220.37 43.1697L216.442 47.7053C219.091 49.9991 222.375 51.0625 226.062 51.0625V45.0625ZM220.395 43.1914C219.171 42.1078 218.406 40.5031 218.406 37.9375H212.406C212.406 41.8302 213.641 45.2255 216.418 47.6836L220.395 43.1914ZM218.406 37.9375C218.406 34.6628 219.58 32.7021 221.756 31.4381L218.744 26.2494C214.462 28.7354 212.406 32.8372 212.406 37.9375H218.406ZM221.748 31.4428C223.015 30.7124 225.162 30.0496 228.441 29.6322L227.684 23.6803C224.088 24.1379 221.026 24.9334 218.752 26.2447L221.748 31.4428ZM228.431 29.6336L231.462 29.2586L230.725 23.3039L227.694 23.6789L228.431 29.6336ZM231.47 29.2575C233.153 29.0445 234.702 28.745 235.836 28.2448L233.414 22.7552C233.131 22.88 232.326 23.1013 230.717 23.305L231.47 29.2575ZM235.801 28.2598C236.775 27.8446 237.735 27.2173 238.451 26.2657C239.194 25.2788 239.531 24.1343 239.531 22.9688H233.531C233.531 22.9754 233.531 22.9324 233.554 22.8588C233.579 22.7826 233.617 22.7114 233.658 22.6562C233.739 22.5484 233.746 22.6137 233.449 22.7402L235.801 28.2598ZM239.531 22.9688C239.531 20.8023 238.696 18.6286 236.471 17.4451L233.654 22.7424C233.65 22.7404 233.618 22.7219 233.576 22.6802C233.534 22.6379 233.507 22.5955 233.492 22.5679C233.467 22.518 233.531 22.6091 233.531 22.9688H239.531ZM236.539 17.4821C234.916 16.565 232.886 16.2812 230.812 16.2812V22.2812C232.489 22.2812 233.292 22.5392 233.586 22.7054L236.539 17.4821ZM230.812 16.2812C228.308 16.2812 225.744 16.8936 224.047 18.9142L228.641 22.7733C228.694 22.7106 229.108 22.2812 230.812 22.2812V16.2812ZM224.013 18.9543C222.963 20.2503 222.395 21.8359 222.131 23.4984L228.057 24.4391C228.209 23.4766 228.475 22.9788 228.674 22.7332L224.013 18.9543ZM225.094 20.9688H216.5V26.9688H225.094V20.9688ZM219.494 24.1572C219.653 21.6354 220.339 19.8002 221.375 18.4579L216.625 14.7921C214.703 17.2831 213.722 20.3438 213.506 23.7803L219.494 24.1572ZM223.716 42.8766C225.151 44.0603 226.87 44.5938 228.688 44.5938V38.5938C228.088 38.5938 227.766 38.4397 227.534 38.2484L223.716 42.8766ZM228.688 44.5938C231.235 44.5938 233.594 43.833 235.691 42.3624L232.246 37.4501C231.135 38.2295 229.973 38.5938 228.688 38.5938V44.5938ZM235.676 42.3728C238.434 40.4638 239.427 37.2457 239.499 33.8129L233.501 33.6871C233.448 36.2126 232.754 37.0987 232.261 37.4397L235.676 42.3728ZM239.5 33.75V30.4375H233.5V33.75H239.5ZM234.902 27.8988C234.488 28.159 234.083 28.3637 233.684 28.5202L235.878 34.1048C236.646 33.8029 237.387 33.4244 238.098 32.9762L234.902 27.8988ZM233.739 28.4993C233.408 28.6221 232.816 28.7831 231.885 28.9576L232.99 34.8549C234.059 34.6544 235.03 34.4195 235.823 34.1257L233.739 28.4993ZM231.885 28.9576L229.885 29.3326L230.99 35.2299L232.99 34.8549L231.885 28.9576ZM229.912 29.3276C227.969 29.673 226.18 30.1506 224.882 30.9159L227.93 36.0841C228.258 35.891 229.156 35.5562 230.963 35.2349L229.912 29.3276ZM224.88 30.9172C222.517 32.3137 221.344 34.6018 221.344 37.2812H227.344C227.344 36.544 227.546 36.3113 227.932 36.0828L224.88 30.9172ZM221.344 37.2812C221.344 39.3321 221.934 41.4874 223.779 42.9274L227.471 38.1976C227.504 38.2234 227.493 38.2392 227.459 38.151C227.414 38.0378 227.344 37.7732 227.344 37.2812H221.344ZM272.469 22.3125L275.2 21.0711L275.199 21.0685L272.469 22.3125ZM262.938 22.3125L260.289 20.9042L260.277 20.9256L260.266 20.9472L262.938 22.3125ZM262.219 47V50H265.219V47H262.219ZM253.188 47H250.188V50H253.188V47ZM253.188 13V10H250.188V13H253.188ZM261.844 13H264.844V10H261.844V13ZM261.844 17.9688H258.844V28.4501L264.389 19.5561L261.844 17.9688ZM264.969 14.1875L266.793 16.5691L266.801 16.5632L264.969 14.1875ZM278 13.9062L279.906 11.5894L279.827 11.5245L279.744 11.465L278 13.9062ZM280.938 18L278.152 19.1142L280.434 24.8178L283.529 19.5116L280.938 18ZM285.281 13.5938L283.915 10.9227L283.883 10.9392L283.851 10.9564L285.281 13.5938ZM299.812 16.125L302.147 14.2409L302.139 14.2307L299.812 16.125ZM301.75 20.5L304.702 19.9633L304.699 19.9477L304.696 19.9321L301.75 20.5ZM302.062 25.5312L305.062 25.54V25.5312H302.062ZM302 47V50H304.991L305 47.0087L302 47ZM292.875 47H289.875V50H292.875V47ZM292.25 22.125L294.933 20.7834L292.25 22.125ZM282.781 22.8125L280.055 21.5606L280.046 21.5797L280.038 21.599L282.781 22.8125ZM282.062 47V50H285.062V47H282.062ZM273.094 47H270.094V50H273.094V47ZM275.199 21.0685C274.58 19.7109 273.604 18.5906 272.271 17.8437C270.974 17.1171 269.52 16.8438 268.062 16.8438V22.8438C268.792 22.8438 269.166 22.9818 269.338 23.0781C269.474 23.1541 269.608 23.2683 269.739 23.5565L275.199 21.0685ZM268.062 16.8438C264.874 16.8438 261.87 17.9287 260.289 20.9042L265.586 23.7208C265.755 23.4046 266.168 22.8438 268.062 22.8438V16.8438ZM260.266 20.9472C259.464 22.5165 259.219 24.4811 259.219 26.5H265.219C265.219 24.8106 265.453 23.9835 265.609 23.6778L260.266 20.9472ZM259.219 26.5V47H265.219V26.5H259.219ZM262.219 44H253.188V50H262.219V44ZM256.188 47V13H250.188V47H256.188ZM253.188 16H261.844V10H253.188V16ZM258.844 13V17.9688H264.844V13H258.844ZM264.389 19.5561C265.416 17.9095 266.231 16.9993 266.793 16.5691L263.145 11.8059C261.748 12.8757 260.48 14.4863 259.298 16.3814L264.389 19.5561ZM266.801 16.5632C267.882 15.7298 269.426 15.1875 271.688 15.1875V9.1875C268.449 9.1875 265.514 9.97858 263.137 11.8118L266.801 16.5632ZM271.688 15.1875C273.865 15.1875 275.302 15.6657 276.256 16.3475L279.744 11.465C277.49 9.85516 274.718 9.1875 271.688 9.1875V15.1875ZM276.094 16.2231C276.968 16.9417 277.659 17.8807 278.152 19.1142L283.723 16.8858C282.883 14.786 281.616 12.9958 279.906 11.5894L276.094 16.2231ZM283.529 19.5116C284.468 17.9011 285.545 16.8635 286.711 16.2311L283.851 10.9564C281.56 12.199 279.74 14.0989 278.346 16.4884L283.529 19.5116ZM286.647 16.2648C288.019 15.563 289.586 15.1875 291.406 15.1875V9.1875C288.726 9.1875 286.21 9.74946 283.915 10.9227L286.647 16.2648ZM291.406 15.1875C292.507 15.1875 293.609 15.3996 294.73 15.8479L296.958 10.2771C295.162 9.55877 293.306 9.1875 291.406 9.1875V15.1875ZM294.73 15.8479C295.63 16.2079 296.557 16.8783 297.486 18.0193L302.139 14.2307C300.693 12.4551 298.975 11.0838 296.958 10.2771L294.73 15.8479ZM297.478 18.0091C298.083 18.7593 298.549 19.7461 298.804 21.0679L304.696 19.9321C304.284 17.7956 303.458 15.8657 302.147 14.2409L297.478 18.0091ZM298.798 21.0367C298.958 21.9123 299.062 23.3735 299.062 25.5312H305.062C305.062 23.2723 304.959 21.3794 304.702 19.9633L298.798 21.0367ZM299.062 25.5225L299 46.9913L305 47.0087L305.062 25.54L299.062 25.5225ZM302 44H292.875V50H302V44ZM295.875 47V25.3125H289.875V47H295.875ZM295.875 25.3125C295.875 23.7248 295.623 22.1623 294.933 20.7834L289.567 23.4666C289.711 23.7544 289.875 24.3169 289.875 25.3125H295.875ZM294.933 20.7834C294.282 19.4808 293.3 18.4163 291.994 17.7072C290.719 17.0151 289.301 16.75 287.875 16.75V22.75C288.574 22.75 288.948 22.8807 289.131 22.9803C289.283 23.0629 289.426 23.1859 289.567 23.4666L294.933 20.7834ZM287.875 16.75C286.232 16.75 284.628 17.0931 283.212 17.9445C281.778 18.8064 280.741 20.0674 280.055 21.5606L285.508 24.0644C285.759 23.516 286.039 23.2456 286.304 23.0867C286.585 22.9173 287.06 22.75 287.875 22.75V16.75ZM280.038 21.599C279.349 23.1566 279.062 24.894 279.062 26.7188H285.062C285.062 25.5019 285.255 24.6351 285.525 24.026L280.038 21.599ZM279.062 26.7188V47H285.062V26.7188H279.062ZM282.062 44H273.094V50H282.062V44ZM276.094 47V26.7188H270.094V47H276.094ZM276.094 26.7188C276.094 24.6153 275.896 22.6021 275.2 21.0711L269.738 23.5539C269.875 23.8562 270.094 24.7806 270.094 26.7188H276.094Z" fill="white" mask="url(#path-2-outside-1_6_728)"/>
</svg>
