<?xml version="1.0" encoding="UTF-8"?>
<!DOCTYPE svg PUBLIC "-//W3C//DTD SVG 1.1//EN" "http://www.w3.org/Graphics/SVG/1.1/DTD/svg11.dtd">
<svg xmlns="http://www.w3.org/2000/svg" version="1.1" width="533px" height="109px" style="shape-rendering:geometricPrecision; text-rendering:geometricPrecision; image-rendering:optimizeQuality; fill-rule:evenodd; clip-rule:evenodd" xmlns:xlink="http://www.w3.org/1999/xlink">
<g><path style="opacity:1" fill="#fcfcfc" d="M -0.5,-0.5 C 177.167,-0.5 354.833,-0.5 532.5,-0.5C 532.5,35.8333 532.5,72.1667 532.5,108.5C 354.833,108.5 177.167,108.5 -0.5,108.5C -0.5,72.1667 -0.5,35.8333 -0.5,-0.5 Z"/></g>
<g><path style="opacity:1" fill="#080808" d="M 25.5,7.5 C 25.1678,19.1857 25.5011,30.8523 26.5,42.5C 27.1067,42.3764 27.44,42.0431 27.5,41.5C 38.9943,30.8389 49.9943,19.6722 60.5,8C 66.5,7.33333 72.5,7.33333 78.5,8C 68.508,18.9921 58.1746,29.6588 47.5,40C 58.6248,55.962 69.9581,71.7953 81.5,87.5C 75.5276,88.6636 69.5276,88.8303 63.5,88C 55.8767,77.2538 48.3767,66.4205 41,55.5C 39.9717,53.6385 38.4717,52.3052 36.5,51.5C 33.1667,54.5 29.8333,57.5 26.5,60.5C 25.5017,69.8096 25.1684,79.1429 25.5,88.5C 20.8333,88.5 16.1667,88.5 11.5,88.5C 11.5,61.5 11.5,34.5 11.5,7.5C 16.1667,7.5 20.8333,7.5 25.5,7.5 Z"/></g>
<g><path style="opacity:1" fill="#8b8b8b" d="M 25.5,7.5 C 26.1667,18.8333 26.8333,30.1667 27.5,41.5C 27.44,42.0431 27.1067,42.3764 26.5,42.5C 25.5011,30.8523 25.1678,19.1857 25.5,7.5 Z"/></g>
<g><path style="opacity:1" fill="#0c0c0c" d="M 161.5,7.5 C 161.167,22.5148 161.501,37.5148 162.5,52.5C 163.107,52.3764 163.44,52.0431 163.5,51.5C 170.167,44.1667 177.167,37.1667 184.5,30.5C 189.695,30.1795 194.695,30.5128 199.5,31.5C 192.353,37.8145 185.686,44.6478 179.5,52C 187.311,63.9745 195.311,75.8078 203.5,87.5C 197.833,88.8333 192.167,88.8333 186.5,87.5C 181.468,79.6313 176.635,71.6313 172,63.5C 171.261,62.4258 170.261,61.7591 169,61.5C 166.719,62.7763 164.719,64.4429 163,66.5C 162.5,73.8258 162.334,81.1591 162.5,88.5C 157.833,88.5 153.167,88.5 148.5,88.5C 148.5,61.5 148.5,34.5 148.5,7.5C 152.833,7.5 157.167,7.5 161.5,7.5 Z"/></g>
<g><path style="opacity:1" fill="#636363" d="M 161.5,7.5 C 162.167,22.1667 162.833,36.8333 163.5,51.5C 163.44,52.0431 163.107,52.3764 162.5,52.5C 161.501,37.5148 161.167,22.5148 161.5,7.5 Z"/></g>
<g><path style="opacity:1" fill="#1e1e1e" d="M 416.5,8.5 C 401.833,8.5 387.167,8.5 372.5,8.5C 372.5,35.1667 372.5,61.8333 372.5,88.5C 371.502,61.6718 371.169,34.6718 371.5,7.5C 386.676,7.17056 401.676,7.50389 416.5,8.5 Z"/></g>
<g><path style="opacity:1" fill="#030303" d="M 416.5,8.5 C 434.762,12.3615 439.595,22.6949 431,39.5C 428.926,41.4521 426.759,43.2854 424.5,45C 429.95,46.9568 433.95,50.4568 436.5,55.5C 437.275,60.7968 437.608,66.1301 437.5,71.5C 434.37,80.9449 427.703,86.4449 417.5,88C 402.504,88.4999 387.504,88.6666 372.5,88.5C 372.5,61.8333 372.5,35.1667 372.5,8.5C 387.167,8.5 401.833,8.5 416.5,8.5 Z"/></g>
<g><path style="opacity:1" fill="#494949" d="M 449.5,7.5 C 449.5,11.5 449.5,15.5 449.5,19.5C 453.5,19.5 457.5,19.5 461.5,19.5C 461.5,15.5 461.5,11.5 461.5,7.5C 462.485,11.6344 462.818,15.9677 462.5,20.5C 457.833,20.5 453.167,20.5 448.5,20.5C 448.182,15.9677 448.515,11.6344 449.5,7.5 Z"/></g>
<g><path style="opacity:1" fill="#010101" d="M 449.5,7.5 C 453.5,7.5 457.5,7.5 461.5,7.5C 461.5,11.5 461.5,15.5 461.5,19.5C 457.5,19.5 453.5,19.5 449.5,19.5C 449.5,15.5 449.5,11.5 449.5,7.5 Z"/></g>
<g><path style="opacity:1" fill="#fbfbfb" d="M 386.5,19.5 C 395.173,19.3336 403.84,19.5002 412.5,20C 414.692,20.926 416.692,22.0927 418.5,23.5C 419.051,26.8067 419.384,30.1401 419.5,33.5C 417.975,38.2732 414.642,40.6066 409.5,40.5C 401.833,40.5 394.167,40.5 386.5,40.5C 386.5,33.5 386.5,26.5 386.5,19.5 Z"/></g>
<g><path style="opacity:1" fill="#080808" d="M 98.5,47.5 C 94.5,47.5 90.5,47.5 86.5,47.5C 86.5,45.5 86.5,43.5 86.5,41.5C 89.4234,35.0129 94.4234,30.8462 101.5,29C 110.816,27.6277 119.816,28.6277 128.5,32C 130.667,34.1667 132.833,36.3333 135,38.5C 135.167,51.8458 135.667,65.1791 136.5,78.5C 138.071,79.3094 139.738,79.6427 141.5,79.5C 142.011,83.0297 141.344,86.1963 139.5,89C 132.793,90.8257 127.126,89.3257 122.5,84.5C 111.65,90.3918 100.65,90.8918 89.5,86C 83.4367,79.4535 81.9367,71.9535 85,63.5C 87.7076,59.8957 91.2076,57.3957 95.5,56C 101.816,54.8917 108.15,53.8917 114.5,53C 121.52,52.4961 123.853,48.9961 121.5,42.5C 115.487,39.0824 109.153,38.5824 102.5,41C 100.372,42.7918 99.0387,44.9584 98.5,47.5 Z"/></g>
<g><path style="opacity:1" fill="#080808" d="M 221.5,47.5 C 217.5,47.5 213.5,47.5 209.5,47.5C 209.5,45.5 209.5,43.5 209.5,41.5C 212.423,35.0129 217.423,30.8462 224.5,29C 233.816,27.6277 242.816,28.6277 251.5,32C 253.667,34.1667 255.833,36.3333 258,38.5C 258.167,51.8458 258.667,65.1791 259.5,78.5C 261.071,79.3094 262.738,79.6427 264.5,79.5C 265.011,83.0297 264.344,86.1963 262.5,89C 255.793,90.8257 250.126,89.3257 245.5,84.5C 234.65,90.3918 223.65,90.8918 212.5,86C 206.437,79.4535 204.937,71.9535 208,63.5C 210.708,59.8957 214.208,57.3957 218.5,56C 224.816,54.8917 231.15,53.8917 237.5,53C 244.52,52.4961 246.853,48.9961 244.5,42.5C 238.487,39.0824 232.153,38.5824 225.5,41C 223.372,42.7918 222.039,44.9584 221.5,47.5 Z"/></g>
<g><path style="opacity:1" fill="#080808" d="M 269.5,50.5 C 271.074,48.8984 271.741,46.8984 271.5,44.5C 279.007,30.7591 290.673,25.5925 306.5,29C 324.132,35.4201 330.965,47.9201 327,66.5C 323.835,82.2602 314.168,89.9269 298,89.5C 285.157,89.913 276.157,84.2463 271,72.5C 269.753,65.221 269.253,57.8876 269.5,50.5 Z"/></g>
<g><path style="opacity:1" fill="#7c7c7c" d="M 418.5,23.5 C 419.972,25.1175 420.639,27.1175 420.5,29.5C 420.489,31.0451 420.156,32.3784 419.5,33.5C 419.384,30.1401 419.051,26.8067 418.5,23.5 Z"/></g>
<g><path style="opacity:1" fill="#3e3e3e" d="M 184.5,30.5 C 189.68,29.1853 195.014,29.1853 200.5,30.5C 200.376,31.1067 200.043,31.44 199.5,31.5C 194.695,30.5128 189.695,30.1795 184.5,30.5 Z"/></g>
<g><path style="opacity:1" fill="#414141" d="M 520.5,40.5 C 520.5,37.1667 520.5,33.8333 520.5,30.5C 505.167,30.5 489.833,30.5 474.5,30.5C 474.5,33.8333 474.5,37.1667 474.5,40.5C 473.518,37.0381 473.185,33.3714 473.5,29.5C 489.5,29.5 505.5,29.5 521.5,29.5C 521.815,33.3714 521.482,37.0381 520.5,40.5 Z"/></g>
<g><path style="opacity:1" fill="#606060" d="M 461.5,88.5 C 461.5,69.1667 461.5,49.8333 461.5,30.5C 457.5,30.5 453.5,30.5 449.5,30.5C 449.5,49.8333 449.5,69.1667 449.5,88.5C 448.503,69.0071 448.17,49.3404 448.5,29.5C 453.167,29.5 457.833,29.5 462.5,29.5C 462.83,49.3404 462.497,69.0071 461.5,88.5 Z"/></g>
<g><path style="opacity:1" fill="#000000" d="M 461.5,88.5 C 457.5,88.5 453.5,88.5 449.5,88.5C 449.5,69.1667 449.5,49.8333 449.5,30.5C 453.5,30.5 457.5,30.5 461.5,30.5C 461.5,49.8333 461.5,69.1667 461.5,88.5 Z"/></g>
<g><path style="opacity:1" fill="#030303" d="M 520.5,40.5 C 510.177,52.4597 499.843,64.4597 489.5,76.5C 488.957,76.56 488.624,76.8933 488.5,77.5C 499.814,78.4988 511.147,78.8322 522.5,78.5C 522.5,81.8333 522.5,85.1667 522.5,88.5C 505.5,88.5 488.5,88.5 471.5,88.5C 471.335,84.8183 471.501,81.1516 472,77.5C 482.167,65.3333 492.333,53.1667 502.5,41C 493.173,40.5002 483.839,40.3335 474.5,40.5C 474.5,37.1667 474.5,33.8333 474.5,30.5C 489.833,30.5 505.167,30.5 520.5,30.5C 520.5,33.8333 520.5,37.1667 520.5,40.5 Z"/></g>
<g><path style="opacity:1" fill="#f9f9f9" d="M 312.5,48.5 C 313.307,54.4638 313.64,60.4638 313.5,66.5C 309.148,78.6168 301.148,81.9502 289.5,76.5C 282.809,69.0917 280.642,60.4251 283,50.5C 288.209,39.2626 296.376,36.4293 307.5,42C 309.79,43.7772 311.457,45.9438 312.5,48.5 Z"/></g>
<g><path style="opacity:1" fill="#a5a5a5" d="M 386.5,19.5 C 386.5,26.5 386.5,33.5 386.5,40.5C 394.167,40.5 401.833,40.5 409.5,40.5C 401.684,41.4924 393.684,41.8257 385.5,41.5C 385.175,33.9809 385.508,26.6476 386.5,19.5 Z"/></g>
<g><path style="opacity:1" fill="#676767" d="M 86.5,41.5 C 86.5,43.5 86.5,45.5 86.5,47.5C 90.5,47.5 94.5,47.5 98.5,47.5C 94.3656,48.4849 90.0323,48.8182 85.5,48.5C 85.1984,45.9407 85.5318,43.6074 86.5,41.5 Z"/></g>
<g><path style="opacity:1" fill="#676767" d="M 209.5,41.5 C 209.5,43.5 209.5,45.5 209.5,47.5C 213.5,47.5 217.5,47.5 221.5,47.5C 217.366,48.4849 213.032,48.8182 208.5,48.5C 208.198,45.9407 208.532,43.6074 209.5,41.5 Z"/></g>
<g><path style="opacity:1" fill="#767676" d="M 271.5,44.5 C 271.741,46.8984 271.074,48.8984 269.5,50.5C 269.259,48.1016 269.926,46.1016 271.5,44.5 Z"/></g>
<g><path style="opacity:1" fill="#8a8a8a" d="M 413.5,52.5 C 404.5,52.5 395.5,52.5 386.5,52.5C 386.5,60.5 386.5,68.5 386.5,76.5C 385.507,68.3501 385.174,60.0168 385.5,51.5C 395.015,51.1731 404.348,51.5064 413.5,52.5 Z"/></g>
<g><path style="opacity:1" fill="#fbfbfb" d="M 413.5,52.5 C 422.817,54.4494 425.984,60.1161 423,69.5C 421.019,72.7447 418.186,74.9114 414.5,76C 405.173,76.4998 395.839,76.6665 386.5,76.5C 386.5,68.5 386.5,60.5 386.5,52.5C 395.5,52.5 404.5,52.5 413.5,52.5 Z"/></g>
<g><path style="opacity:1" fill="#a2a2a2" d="M 312.5,48.5 C 313.222,48.9175 313.722,49.5842 314,50.5C 314.817,56.0164 314.651,61.3497 313.5,66.5C 313.64,60.4638 313.307,54.4638 312.5,48.5 Z"/></g>
<g><path style="opacity:1" fill="#f1f1f1" d="M 118.5,60.5 C 119.833,60.5 121.167,60.5 122.5,60.5C 124.4,72.0513 119.566,78.3846 108,79.5C 100.153,79.655 96.4865,75.9884 97,68.5C 98.5429,66.6217 100.376,65.1217 102.5,64C 107.969,62.8708 113.302,61.7041 118.5,60.5 Z"/></g>
<g><path style="opacity:1" fill="#f1f1f1" d="M 241.5,60.5 C 242.833,60.5 244.167,60.5 245.5,60.5C 247.4,72.0513 242.566,78.3846 231,79.5C 223.153,79.655 219.486,75.9884 220,68.5C 221.543,66.6217 223.376,65.1217 225.5,64C 230.969,62.8708 236.302,61.7041 241.5,60.5 Z"/></g>
<g><path style="opacity:1" fill="#767676" d="M 436.5,55.5 C 437.222,55.9175 437.722,56.5842 438,57.5C 438.815,62.3522 438.648,67.0189 437.5,71.5C 437.608,66.1301 437.275,60.7968 436.5,55.5 Z"/></g>
<g><path style="opacity:1" fill="#515151" d="M 489.5,76.5 C 500.654,77.4948 511.988,77.8281 523.5,77.5C 523.815,81.3714 523.482,85.0381 522.5,88.5C 522.5,85.1667 522.5,81.8333 522.5,78.5C 511.147,78.8322 499.814,78.4988 488.5,77.5C 488.624,76.8933 488.957,76.56 489.5,76.5 Z"/></g>
<g><path style="opacity:1" fill="#000000" d="M 3.5,98.5 C 178.167,98.5 352.833,98.5 527.5,98.5C 527.5,99.5 527.5,100.5 527.5,101.5C 352.833,101.5 178.167,101.5 3.5,101.5C 3.5,100.5 3.5,99.5 3.5,98.5 Z"/></g>
</svg>
